<?xml version="1.0" encoding="UTF-8"?>
<svg version="1.1" xmlns="http://www.w3.org/2000/svg" width="1024" height="1024">
<path d="M0 0 C1.07127617 0.0023229 1.07127617 0.0023229 2.16419429 0.00469273 C2.91768363 0.00242718 3.67117298 0.00016162 4.44749534 -0.00217259 C6.99168266 -0.0085414 9.5358171 -0.00768139 12.08001155 -0.00685817 C13.89630661 -0.00984791 15.71260103 -0.01325001 17.5288946 -0.01703578 C22.47729664 -0.02589992 27.42568141 -0.02821494 32.37409061 -0.02885157 C36.49941052 -0.02979887 40.62472636 -0.03347519 44.7500447 -0.03702366 C54.48129224 -0.04517779 64.21253052 -0.04760707 73.94378108 -0.04689723 C83.99289145 -0.04629654 94.04194812 -0.05684449 104.0910449 -0.0726409 C112.70761935 -0.08570447 121.32417622 -0.09108161 129.94076049 -0.09044182 C135.09183954 -0.09018644 140.24287093 -0.0930597 145.39394015 -0.10361987 C150.23903564 -0.1132807 155.08403772 -0.11339391 159.92913646 -0.10610324 C161.70933434 -0.10505481 163.48953799 -0.10743556 165.26972598 -0.1134637 C167.69657366 -0.12115031 170.12309609 -0.11656101 172.54993647 -0.10883266 C173.25742842 -0.11397622 173.96492037 -0.11911978 174.69385147 -0.12441921 C178.29732571 -0.09899384 181.03818832 0.05765861 184.04754084 2.1384055 C185.58049983 4.3871848 185.58049983 4.3871848 187.04363459 7.21262425 C187.59567561 8.26119603 188.14771662 9.30976781 188.71648616 10.39011449 C189.3001092 11.52392552 189.88373225 12.65773656 190.48504084 13.8259055 C191.73681662 16.20727242 192.99058716 18.5874902 194.24675959 20.9665305 C194.56391932 21.569847 194.88107905 22.1731635 195.20784968 22.79476231 C198.28152554 28.62640721 201.52324203 34.35530837 204.79754084 40.0759055 C209.10468206 47.62803855 213.24586306 55.24081325 217.25090998 62.95676488 C220.44478362 69.07532607 223.81442822 75.08161079 227.23504084 81.0759055 C232.48472988 90.27844829 237.52960014 99.58008886 242.5021612 108.93418187 C246.77526836 116.96715847 251.15536159 124.92736555 255.67254084 132.8259055 C260.36757277 141.07906233 264.95974573 149.38216219 269.42254084 157.7634055 C270.00084651 158.82519017 270.57915217 159.88697484 271.17498225 160.9809348 C271.69753596 161.97391576 272.22008967 162.96689671 272.75847834 163.989968 C273.22560237 164.86475804 273.69272639 165.73954808 274.17400569 166.64084691 C275.24610573 169.70613014 275.05633211 171.0679026 274.04754084 174.1384055 C273.07896042 176.14458922 272.03480142 178.11501809 270.94207209 180.05637425 C270.62635752 180.62239354 270.31064296 181.18841283 269.98536128 181.77158421 C269.30461088 182.99050009 268.62082878 184.20772681 267.93432063 185.42340916 C266.09815015 188.67517621 264.28376312 191.93909803 262.46550959 195.2009055 C262.09421931 195.86539204 261.72292903 196.52987859 261.34038752 197.21450108 C257.71316641 203.71376663 254.18533484 210.26405914 250.67254084 216.8259055 C246.11219374 225.32631656 241.49593171 233.79007761 236.79363459 242.21262425 C233.2547044 248.55214669 229.7441734 254.90735909 226.23504084 261.2634055 C225.89075038 261.88681828 225.54645991 262.51023106 225.1917364 263.15253514 C220.5375723 271.58295804 215.92886566 280.03634258 211.36004084 288.5134055 C206.0547285 298.35032172 200.60233946 308.09717942 195.06707209 317.80637425 C193.13107702 321.20645412 191.23114404 324.6216333 189.37175959 328.06418675 C188.96473811 328.81119847 188.55771662 329.55821019 188.13836116 330.32785863 C187.39549866 331.69532946 186.66107554 333.06743593 185.93718928 334.44504613 C184.02865588 337.93741685 182.80467424 339.79547301 179.04754084 341.1384055 C176.56973347 341.32919142 174.20550438 341.41268377 171.72870845 341.39910191 C170.62018917 341.40484023 170.62018917 341.40484023 169.48927557 341.41069448 C167.01196165 341.42101663 164.53487983 341.41703386 162.05755061 341.4130637 C160.28184245 341.41741061 158.50613617 341.42259368 156.73043269 341.42855138 C151.90608643 341.44195476 147.08181845 341.44251857 142.2574572 341.43998808 C138.23148958 341.4389193 134.20553787 341.44379932 130.17957366 341.4485935 C120.68266979 341.45969325 111.18580548 341.46012341 101.68889827 341.45407933 C91.8879439 341.44803771 82.08713303 341.46035426 72.28620315 341.4816494 C63.87421506 341.4992554 55.4622727 341.50526835 47.05026686 341.50201166 C42.02493561 341.5001971 36.99970671 341.50285216 31.97439212 341.5167262 C27.24904124 341.52928367 22.52391435 341.52738018 17.798567 341.51431531 C16.06393883 341.51194546 14.329295 341.51469881 12.59468478 341.52293843 C10.22731431 341.53337322 7.86069997 341.52533204 5.49335688 341.5126273 C4.80638793 341.52000159 4.11941897 341.52737587 3.41163278 341.53497362 C-0.87311496 341.48657387 -3.53455669 340.73556915 -6.95245916 338.1384055 C-8.59894353 335.77610081 -8.59894353 335.77610081 -10.04620916 332.9665305 C-10.86883245 331.39959447 -10.86883245 331.39959447 -11.70807439 329.80100316 C-12.28372136 328.67484593 -12.85936834 327.5486887 -13.45245916 326.3884055 C-14.38533897 324.60806678 -15.31825415 322.82774419 -16.25432378 321.04908055 C-16.89133449 319.838604 -17.52695559 318.6273952 -18.16121465 317.41547459 C-21.11137152 311.79095899 -24.23124127 306.2725696 -27.38995916 300.7634055 C-32.55945212 291.70571984 -37.51468404 282.54266611 -42.41119939 273.33567113 C-46.62717554 265.41337777 -50.93623568 257.5548302 -55.38995916 249.7634055 C-61.20119074 239.59171896 -66.71883085 229.27742036 -72.20636541 218.92917699 C-75.8695009 212.02451944 -79.56975985 205.14534 -83.38995916 198.3259055 C-84.52805318 196.28438829 -85.66542064 194.24246809 -86.80255681 192.20041722 C-87.61264834 190.74775628 -88.4250365 189.29637491 -89.23908025 187.84592503 C-90.53137006 185.53358269 -91.80607679 183.2122949 -93.07745916 180.8884055 C-93.46860906 180.19642064 -93.85975896 179.50443578 -94.26276189 178.79148167 C-94.61669011 178.13768529 -94.97061834 177.4838889 -95.33527166 176.8102805 C-95.64867498 176.2440598 -95.9620783 175.6778391 -96.28497869 175.09446019 C-97.60550077 171.22466394 -97.33851295 168.08992673 -95.81354314 164.3312766 C-95.28059636 163.36786351 -94.74764959 162.40445042 -94.19855291 161.411843 C-93.29919011 159.76188329 -93.29919011 159.76188329 -92.38165838 158.07859105 C-91.71791953 156.890106 -91.05401529 155.7017133 -90.38995916 154.5134055 C-89.70653402 153.26908075 -89.02442717 152.02403113 -88.34357244 150.77829808 C-86.92659406 148.18776046 -85.50396876 145.60043975 -84.07794744 143.01487035 C-82.04480952 139.31877046 -80.05181462 135.60239332 -78.07355291 131.87668675 C-77.76242055 131.29096898 -77.4512882 130.7052512 -77.13072759 130.10178441 C-76.82125692 129.51912816 -76.51178624 128.93647191 -76.19293767 128.33615941 C-70.56968886 117.75494342 -64.80738412 107.26589103 -58.86603338 96.85984105 C-54.26312571 88.76650034 -49.87029355 80.56614946 -45.49948674 72.34619969 C-40.64813438 63.22831253 -35.64264071 54.2104858 -30.52155095 45.24143285 C-27.14557514 39.30903998 -23.90672762 33.32279651 -20.76495916 27.2634055 C-6.64113758 0.03325399 -6.64113758 0.03325399 0 0 Z " fill="#F1781E" transform="translate(423.9524591565132,341.8615944981575)"/>
<path d="M0 0 C8.17333935 6.20088943 14.3468887 13.71624404 18.27734375 23.21484375 C17.06651157 26.84734029 16.14868817 27.20004417 12.9453125 29.1328125 C11.62370117 29.93041992 11.62370117 29.93041992 10.27539062 30.74414062 C9.34791016 31.29134766 8.42042969 31.83855469 7.46484375 32.40234375 C6.54896484 32.96115234 5.63308594 33.51996094 4.68945312 34.09570312 C3.80451172 34.62357422 2.91957031 35.15144531 2.0078125 35.6953125 C1.19723389 36.17895264 0.38665527 36.66259277 -0.44848633 37.16088867 C-2.72265625 38.21484375 -2.72265625 38.21484375 -6.72265625 38.21484375 C-8.328125 35.80078125 -8.328125 35.80078125 -9.91015625 32.58984375 C-13.28520685 26.48021057 -16.48008358 23.2560971 -22.72265625 20.21484375 C-23.36332031 19.87839844 -24.00398437 19.54195313 -24.6640625 19.1953125 C-33.91961001 15.22864928 -48.14321266 15.64086131 -57.48828125 19.12109375 C-68.73781796 24.62785997 -73.96843132 31.78567286 -78.03515625 43.46484375 C-83.76716991 61.36227037 -82.2972302 85.07238692 -74.72265625 102.21484375 C-69.98413053 110.56367477 -62.66757559 116.00817455 -53.72265625 119.21484375 C-41.89748845 122.14044755 -29.41725157 120.83578115 -18.97265625 114.58984375 C-11.24550407 109.0568212 -7.81873117 100.93849015 -4.72265625 92.21484375 C1.33147558 92.68130965 5.93308278 95.42011278 11.15234375 98.27734375 C12.03148437 98.74978516 12.910625 99.22222656 13.81640625 99.70898438 C15.97429899 100.87002449 18.12762083 102.03876643 20.27734375 103.21484375 C18.28938397 113.47233373 13.81536911 121.11419282 7.27734375 129.21484375 C6.77847656 129.86453125 6.27960938 130.51421875 5.765625 131.18359375 C-2.10724417 140.27562114 -16.99255954 146.23121534 -28.72265625 147.21484375 C-50.37303758 148.51431089 -71.35210487 147.07557781 -88.61230469 132.30493164 C-97.47189159 124.27680439 -103.29554843 115.2744452 -107.72265625 104.21484375 C-108.02042969 103.47621094 -108.31820313 102.73757813 -108.625 101.9765625 C-112.57643551 91.22315342 -113.08936799 79.74752486 -113.03515625 68.40234375 C-113.0302417 67.17837891 -113.02532715 65.95441406 -113.02026367 64.69335938 C-112.84191684 50.8865709 -110.9621466 38.71087223 -104.72265625 26.21484375 C-104.23023438 25.21839844 -103.7378125 24.22195313 -103.23046875 23.1953125 C-94.51498757 6.95282484 -80.72767727 -2.67965107 -63.44140625 -8.09375 C-43.47318263 -13.17187583 -17.50619717 -11.47823832 0 0 Z " fill="#040000" transform="translate(561.72265625,449.78515625)"/>
<path d="M0 0 C1.07127617 0.0023229 1.07127617 0.0023229 2.16419429 0.00469273 C2.91768363 0.00242718 3.67117298 0.00016162 4.44749534 -0.00217259 C6.99168266 -0.0085414 9.5358171 -0.00768139 12.08001155 -0.00685817 C13.89630661 -0.00984791 15.71260103 -0.01325001 17.5288946 -0.01703578 C22.47729664 -0.02589992 27.42568141 -0.02821494 32.37409061 -0.02885157 C36.49941052 -0.02979887 40.62472636 -0.03347519 44.7500447 -0.03702366 C54.48129224 -0.04517779 64.21253052 -0.04760707 73.94378108 -0.04689723 C83.99289145 -0.04629654 94.04194812 -0.05684449 104.0910449 -0.0726409 C112.70761935 -0.08570447 121.32417622 -0.09108161 129.94076049 -0.09044182 C135.09183954 -0.09018644 140.24287093 -0.0930597 145.39394015 -0.10361987 C150.23903564 -0.1132807 155.08403772 -0.11339391 159.92913646 -0.10610324 C161.70933434 -0.10505481 163.48953799 -0.10743556 165.26972598 -0.1134637 C167.69657366 -0.12115031 170.12309609 -0.11656101 172.54993647 -0.10883266 C173.25742842 -0.11397622 173.96492037 -0.11911978 174.69385147 -0.12441921 C178.29732571 -0.09899384 181.03818832 0.05765861 184.04754084 2.1384055 C185.58049983 4.3871848 185.58049983 4.3871848 187.04363459 7.21262425 C187.59567561 8.26119603 188.14771662 9.30976781 188.71648616 10.39011449 C189.3001092 11.52392552 189.88373225 12.65773656 190.48504084 13.8259055 C191.73681662 16.20727242 192.99058716 18.5874902 194.24675959 20.9665305 C194.56391932 21.569847 194.88107905 22.1731635 195.20784968 22.79476231 C198.28152554 28.62640721 201.52324203 34.35530837 204.79754084 40.0759055 C209.10468206 47.62803855 213.24586306 55.24081325 217.25090998 62.95676488 C220.44478362 69.07532607 223.81442822 75.08161079 227.23504084 81.0759055 C232.48472988 90.27844829 237.52960014 99.58008886 242.5021612 108.93418187 C246.77526836 116.96715847 251.15536159 124.92736555 255.67254084 132.8259055 C260.36757277 141.07906233 264.95974573 149.38216219 269.42254084 157.7634055 C270.00084651 158.82519017 270.57915217 159.88697484 271.17498225 160.9809348 C271.69753596 161.97391576 272.22008967 162.96689671 272.75847834 163.989968 C273.22560237 164.86475804 273.69272639 165.73954808 274.17400569 166.64084691 C275.24610573 169.70613014 275.05633211 171.0679026 274.04754084 174.1384055 C273.07896042 176.14458922 272.03480142 178.11501809 270.94207209 180.05637425 C270.62635752 180.62239354 270.31064296 181.18841283 269.98536128 181.77158421 C269.30461088 182.99050009 268.62082878 184.20772681 267.93432063 185.42340916 C266.09815015 188.67517621 264.28376312 191.93909803 262.46550959 195.2009055 C262.09421931 195.86539204 261.72292903 196.52987859 261.34038752 197.21450108 C257.71316641 203.71376663 254.18533484 210.26405914 250.67254084 216.8259055 C246.11219374 225.32631656 241.49593171 233.79007761 236.79363459 242.21262425 C233.2547044 248.55214669 229.7441734 254.90735909 226.23504084 261.2634055 C225.89075038 261.88681828 225.54645991 262.51023106 225.1917364 263.15253514 C220.5375723 271.58295804 215.92886566 280.03634258 211.36004084 288.5134055 C206.0547285 298.35032172 200.60233946 308.09717942 195.06707209 317.80637425 C193.13107702 321.20645412 191.23114404 324.6216333 189.37175959 328.06418675 C188.96473811 328.81119847 188.55771662 329.55821019 188.13836116 330.32785863 C187.39549866 331.69532946 186.66107554 333.06743593 185.93718928 334.44504613 C184.02865588 337.93741685 182.80467424 339.79547301 179.04754084 341.1384055 C176.56973347 341.32919142 174.20550438 341.41268377 171.72870845 341.39910191 C170.62018917 341.40484023 170.62018917 341.40484023 169.48927557 341.41069448 C167.01196165 341.42101663 164.53487983 341.41703386 162.05755061 341.4130637 C160.28184245 341.41741061 158.50613617 341.42259368 156.73043269 341.42855138 C151.90608643 341.44195476 147.08181845 341.44251857 142.2574572 341.43998808 C138.23148958 341.4389193 134.20553787 341.44379932 130.17957366 341.4485935 C120.68266979 341.45969325 111.18580548 341.46012341 101.68889827 341.45407933 C91.8879439 341.44803771 82.08713303 341.46035426 72.28620315 341.4816494 C63.87421506 341.4992554 55.4622727 341.50526835 47.05026686 341.50201166 C42.02493561 341.5001971 36.99970671 341.50285216 31.97439212 341.5167262 C27.24904124 341.52928367 22.52391435 341.52738018 17.798567 341.51431531 C16.06393883 341.51194546 14.329295 341.51469881 12.59468478 341.52293843 C10.22731431 341.53337322 7.86069997 341.52533204 5.49335688 341.5126273 C4.80638793 341.52000159 4.11941897 341.52737587 3.41163278 341.53497362 C-0.87311496 341.48657387 -3.53455669 340.73556915 -6.95245916 338.1384055 C-8.59894353 335.77610081 -8.59894353 335.77610081 -10.04620916 332.9665305 C-10.86883245 331.39959447 -10.86883245 331.39959447 -11.70807439 329.80100316 C-12.28372136 328.67484593 -12.85936834 327.5486887 -13.45245916 326.3884055 C-14.38533897 324.60806678 -15.31825415 322.82774419 -16.25432378 321.04908055 C-16.89133449 319.838604 -17.52695559 318.6273952 -18.16121465 317.41547459 C-21.11137152 311.79095899 -24.23124127 306.2725696 -27.38995916 300.7634055 C-32.55945212 291.70571984 -37.51468404 282.54266611 -42.41119939 273.33567113 C-46.62717554 265.41337777 -50.93623568 257.5548302 -55.38995916 249.7634055 C-61.20119074 239.59171896 -66.71883085 229.27742036 -72.20636541 218.92917699 C-75.8695009 212.02451944 -79.56975985 205.14534 -83.38995916 198.3259055 C-84.52805318 196.28438829 -85.66542064 194.24246809 -86.80255681 192.20041722 C-87.61264834 190.74775628 -88.4250365 189.29637491 -89.23908025 187.84592503 C-90.53137006 185.53358269 -91.80607679 183.2122949 -93.07745916 180.8884055 C-93.46860906 180.19642064 -93.85975896 179.50443578 -94.26276189 178.79148167 C-94.61669011 178.13768529 -94.97061834 177.4838889 -95.33527166 176.8102805 C-95.64867498 176.2440598 -95.9620783 175.6778391 -96.28497869 175.09446019 C-97.60550077 171.22466394 -97.33851295 168.08992673 -95.81354314 164.3312766 C-95.28059636 163.36786351 -94.74764959 162.40445042 -94.19855291 161.411843 C-93.29919011 159.76188329 -93.29919011 159.76188329 -92.38165838 158.07859105 C-91.71791953 156.890106 -91.05401529 155.7017133 -90.38995916 154.5134055 C-89.70653402 153.26908075 -89.02442717 152.02403113 -88.34357244 150.77829808 C-86.92659406 148.18776046 -85.50396876 145.60043975 -84.07794744 143.01487035 C-82.04480952 139.31877046 -80.05181462 135.60239332 -78.07355291 131.87668675 C-77.76242055 131.29096898 -77.4512882 130.7052512 -77.13072759 130.10178441 C-76.82125692 129.51912816 -76.51178624 128.93647191 -76.19293767 128.33615941 C-70.56968886 117.75494342 -64.80738412 107.26589103 -58.86603338 96.85984105 C-54.26312571 88.76650034 -49.87029355 80.56614946 -45.49948674 72.34619969 C-40.64813438 63.22831253 -35.64264071 54.2104858 -30.52155095 45.24143285 C-27.14557514 39.30903998 -23.90672762 33.32279651 -20.76495916 27.2634055 C-6.64113758 0.03325399 -6.64113758 0.03325399 0 0 Z M-4.95245916 2.1384055 C-5.32008367 2.8183054 -5.68770818 3.49820531 -6.06647283 4.19870824 C-7.75710915 7.32472534 -9.44852905 10.45031783 -11.13995916 13.5759055 C-11.71810369 14.64518285 -12.29624822 15.71446019 -12.89191228 16.81613988 C-16.20898293 22.94428735 -19.55196324 29.05615572 -22.95245916 35.1384055 C-26.84267729 42.10811355 -30.65932431 49.11538552 -34.45245916 56.1384055 C-38.63273905 63.87822766 -42.85400736 71.59166884 -47.14386541 79.271218 C-51.20885376 86.56466977 -55.17067734 93.91322631 -59.13825017 101.25998753 C-62.34990142 107.20015049 -65.59403287 113.1196342 -68.88995916 119.0134055 C-73.64782151 127.52928957 -78.28960114 136.10699916 -82.88580877 144.71115941 C-85.43438259 149.48201051 -87.98629301 154.24116874 -90.69464666 158.92356175 C-91.0837824 159.60845677 -91.47291814 160.29335179 -91.87384588 160.9990012 C-92.86532189 162.73576736 -93.87671161 164.46112541 -94.88995916 166.1852805 C-96.30858326 170.12822101 -95.7179562 171.34871391 -93.95245916 175.1384055 C-92.24994121 178.65531898 -90.46327267 182.12018158 -88.63995916 185.5759055 C-88.10797918 186.59015599 -87.5759992 187.60440648 -87.02789861 188.64939183 C-82.84334984 196.57353296 -78.46767728 204.37814528 -74.02155095 212.15769261 C-69.69813739 219.74779896 -65.55262438 227.42626481 -61.45245916 235.1384055 C-56.91943803 243.66290491 -52.3065979 252.1308257 -47.51495916 260.5134055 C-42.43332789 269.40803646 -37.56520327 278.40259195 -32.76495916 287.4509055 C-27.32894044 297.6971039 -21.82545642 307.89606611 -16.14093572 318.00705785 C-14.81046249 320.39305442 -13.50153612 322.79019542 -12.19464666 325.18918675 C-11.7362238 326.02675511 -11.27780095 326.86432347 -10.8054865 327.72727269 C-9.92396382 329.33889083 -9.04647665 330.95272496 -8.17365056 332.56906956 C-6.2515886 336.50292591 -6.2515886 336.50292591 -2.95245916 339.1384055 C-0.55609616 339.24239926 1.81161184 339.28620468 4.20852107 339.28557652 C5.32778607 339.29109155 5.32778607 339.29109155 6.46966249 339.296718 C8.98309625 339.30777728 11.49648871 339.31160244 14.00994319 339.31540745 C15.8066822 339.32167032 17.60341992 339.32831696 19.4001562 339.33532017 C24.29064173 339.3527442 29.18111748 339.36328535 34.07162637 339.3715257 C37.12470215 339.37667196 40.17777487 339.3827478 43.23084849 339.38903683 C52.77655473 339.4080912 62.32225321 339.42232288 71.86797482 339.4306488 C82.89964411 339.44042885 93.93111317 339.46676737 104.96271187 339.5071497 C113.48164193 339.53726799 122.00051445 339.55211352 130.51949674 339.55542982 C135.61138718 339.55778485 140.70306376 339.56680414 145.79489726 339.59189099 C150.58344713 339.6151024 155.37164127 339.61943301 160.16023272 339.60912961 C161.91947884 339.60863247 163.67874206 339.61500498 165.43793505 339.62868565 C167.83658519 339.64629822 170.23394383 339.6393521 172.63259333 339.62615269 C173.33162127 339.63712194 174.0306492 339.64809119 174.7508598 339.65939283 C178.05992185 339.61531483 179.75988753 339.36375408 182.39795321 337.29708451 C184.50241844 334.54314478 186.12779362 331.631718 187.69988459 328.55637425 C188.03610331 327.91446645 188.37232203 327.27255864 188.7187292 326.61119908 C189.43901384 325.23495108 190.15613218 323.85704209 190.87035578 322.4776389 C192.76337347 318.82345034 194.68114909 315.18230719 196.59832209 311.54074925 C196.98042842 310.81392949 197.36253474 310.08710973 197.75622004 309.33826512 C200.94628814 303.28805628 204.27053409 297.32208837 207.67254084 291.3884055 C212.84837574 282.34452052 217.80812956 273.19652212 222.70723933 264.00113744 C226.82361303 256.27526132 230.98834857 248.58259397 235.26873225 240.94626683 C238.95922425 234.34306884 242.5343472 227.67931012 246.11004084 221.0134055 C249.92884485 213.89760899 253.75694009 206.79159684 257.73504084 199.7634055 C258.24442195 198.85860448 258.24442195 198.85860448 258.76409358 197.93552464 C260.33245531 195.1535189 261.90940533 192.3773139 263.50799006 189.6125266 C265.07551076 186.89904032 266.62464104 184.17562146 268.17254084 181.4509055 C268.6710052 180.60028538 269.16946955 179.74966527 269.68303889 178.87326878 C270.13590266 178.07002171 270.58876643 177.26677464 271.05535334 176.43918675 C271.46414729 175.72931615 271.87294123 175.01944554 272.29412287 174.2880637 C273.59480578 170.57694479 272.404383 167.9407889 270.85515803 164.45725316 C270.35661311 163.49867406 269.85806819 162.54009495 269.34441584 161.552468 C268.78310969 160.46909154 268.22180354 159.38571507 267.64348811 158.26950902 C267.03432551 157.11249486 266.42516291 155.9554807 265.79754084 154.7634055 C265.16067482 153.54460855 264.52387562 152.32577668 263.88714045 151.10691136 C259.43181768 142.61270013 254.78210927 134.23988475 250.01531428 125.91623753 C245.72021257 118.39657332 241.61200591 110.78427619 237.54754084 103.1384055 C232.99265485 94.57304856 228.35841422 86.06335863 223.54754084 77.6384055 C218.73664913 69.21342027 214.10343161 60.7032474 209.54754084 52.1384055 C202.92091836 39.68560067 196.07329305 27.37047194 189.04754084 15.1384055 C188.64470881 14.4361887 188.24187678 13.73397191 187.82683772 13.01047581 C184.87773836 7.25445623 184.87773836 7.25445623 181.04754084 2.1384055 C178.64425556 2.04074009 176.26974733 2.00843722 173.86600703 2.01815099 C173.10561187 2.01729656 172.3452167 2.01644214 171.56177926 2.01556182 C168.99442834 2.01390473 166.42714168 2.01943211 163.8597967 2.02488011 C162.0271602 2.02516196 160.19452359 2.0250043 158.36188716 2.02443761 C153.37036022 2.02414954 148.3788571 2.03004773 143.38733572 2.03701156 C138.17694978 2.0432436 132.96656336 2.04384878 127.75617427 2.04503697 C117.88223059 2.04815073 108.00829793 2.05636472 98.13435912 2.06638646 C86.89634083 2.07754621 75.65832203 2.0830577 64.42029959 2.0880819 C41.29604056 2.0985473 18.17179132 2.11614761 -4.95245916 2.1384055 Z " fill="#ED6406" transform="translate(423.9524591565132,341.8615944981575)"/>
<path d="M0 0 C-0.33 0.99 -0.66 1.98 -1 3 C-3.25 3.9140625 -3.25 3.9140625 -6 4.625 C-9.28439007 5.287116 -9.28439007 5.287116 -12 7 C-19.4330634 9.11979956 -26.82336687 9.30644583 -34.5 9.25 C-36.12421875 9.26160156 -36.12421875 9.26160156 -37.78125 9.2734375 C-38.8125 9.27085937 -39.84375 9.26828125 -40.90625 9.265625 C-41.83759766 9.26336914 -42.76894531 9.26111328 -43.72851562 9.25878906 C-46 9 -46 9 -48 7 C-47.29617188 6.9906543 -46.59234375 6.98130859 -45.8671875 6.97167969 C-30.49162306 6.71575482 -14.15512089 0 0 0 Z " fill="#D87A33" transform="translate(555,590)"/>
<path d="M0 0 C-3.26486787 1.08828929 -4.36990083 0.89901381 -7.625 0.125 C-8.42164063 -0.05804688 -9.21828125 -0.24109375 -10.0390625 -0.4296875 C-12 -1 -12 -1 -13 -2 C-15.42827613 -2.10068462 -17.82198411 -2.1387176 -20.25 -2.125 C-20.91902344 -2.12886719 -21.58804688 -2.13273437 -22.27734375 -2.13671875 C-25.9780363 -2.12944823 -29.40259947 -1.87843501 -33 -1 C-33.33 -1.66 -33.66 -2.32 -34 -3 C-22.82493359 -5.73811388 -10.3196401 -5.09162859 0 0 Z " fill="#D27631" transform="translate(541,470)"/>
<path d="M0 0 C-0.33 0.99 -0.66 1.98 -1 3 C-3.25 3.9140625 -3.25 3.9140625 -6 4.625 C-9.28439007 5.287116 -9.28439007 5.287116 -12 7 C-13.68608966 7.07205511 -15.37500659 7.08386068 -17.0625 7.0625 C-17.98160156 7.05347656 -18.90070312 7.04445313 -19.84765625 7.03515625 C-20.55792969 7.02355469 -21.26820313 7.01195312 -22 7 C-22 6.67 -22 6.34 -22 6 C-20.89140625 5.73445312 -19.7828125 5.46890625 -18.640625 5.1953125 C-17.17702189 4.83879379 -15.71348359 4.48200897 -14.25 4.125 C-13.52039063 3.95097656 -12.79078125 3.77695312 -12.0390625 3.59765625 C-8.14776792 2.64252031 -3.83391897 0 0 0 Z " fill="#CC722E" transform="translate(555,590)"/>
<path d="M0 0 C0.33 0 0.66 0 1 0 C1.24042276 4.08718695 0.42258812 7.17679443 -1 11 C-1.66 11 -2.32 11 -3 11 C-3 14.63 -3 18.26 -3 22 C-5.28005682 17.43988636 -5.15745611 14.77551821 -4 10 C-2.80469952 6.60283021 -1.45170773 3.29503893 0 0 Z " fill="#CB712C" transform="translate(486,485)"/>
<path d="M0 0 C0.66 0.33 1.32 0.66 2 1 C-6.27906977 10.58139535 -6.27906977 10.58139535 -9 13 C-9.66 13 -10.32 13 -11 13 C-9.46356148 9.31930113 -7.21849055 7.01224796 -4.375 4.25 C-3.55773437 3.45078125 -2.74046875 2.6515625 -1.8984375 1.828125 C-0.95871094 0.92320312 -0.95871094 0.92320312 0 0 Z " fill="#190400" transform="translate(475,453)"/>
<path d="M0 0 C0.66 0.33 1.32 0.66 2 1 C2.625 3.5625 2.625 3.5625 3 6 C1.02 6.99 1.02 6.99 -1 8 C-0.67 5.36 -0.34 2.72 0 0 Z " fill="#2C0B01" transform="translate(577,469)"/>
</svg>
