<svg xmlns="http://www.w3.org/2000/svg" xmlns:xlink="http://www.w3.org/1999/xlink" version="1.1" width="768pt" height="576pt" viewBox="0 0 768 576">
<defs>
<clipPath id="clip_0">
<path transform="matrix(.24,0,0,.24,0,0)" d="M0 0H3200V2400H0Z" fill-rule="evenodd"/>
</clipPath>
<clipPath id="clip_1">
<path transform="matrix(.24,0,0,.24,0,0)" d="M0 0H3200V2400H0Z" fill-rule="evenodd"/>
</clipPath>
<clipPath id="clip_2">
<path transform="matrix(.24,0,0,.24,0,0)" d="M218.12007 549.54959H2958.745V1758.9246H218.12007Z" fill-rule="evenodd"/>
</clipPath>
<clipPath id="clip_3">
<path transform="matrix(.24,0,0,.24,80.64,137.28)" d="M0 0H2623V830H0Z" fill-rule="evenodd"/>
</clipPath>
<clipPath id="clip_4">
<path transform="matrix(.24,0,0,.24,80.64,400.56)" d="M0 0H2623V8H0Z" fill-rule="evenodd"/>
</clipPath>
</defs>
<g>
<g clip-path="url(#clip_0)">
<path transform="matrix(.75,0,0,.75,0,0)" d="M0 0H1024V768H0Z" fill="#ffffff"/>
</g>
<g clip-path="url(#clip_1)">
<path transform="matrix(.75,0,0,.75,0,0)" d="M0 0H1024V768H0Z" fill="#212129"/>
</g>
<g clip-path="url(#clip_2)">
<text fill="#ffffff" xml:space="preserve" transform="matrix(.75 0 0 .75 110.52411 419.94227)" font-size="18.79" font-family="CanvaSans"><tspan y="0" x="-18.453125 -8.448257 4.152054">JAN</tspan></text>
<text fill="#ffffff" xml:space="preserve" transform="matrix(.75 0 0 .75 166.86927 420.31727)" font-size="18.79" font-family="CanvaSans"><tspan y="0" x="-17.421875 -6.793228 4.532379">FEB</tspan></text>
<text fill="#ffffff" xml:space="preserve" transform="matrix(.75 0 0 .75 223.58943 420.31727)" font-size="18.79" font-family="CanvaSans"><tspan y="0" x="-21 -4.025345 8.574966">MAR</tspan></text>
<text fill="#ffffff" xml:space="preserve" transform="matrix(.75 0 0 .75 281.4346 420.31727)" font-size="18.79" font-family="CanvaSans"><tspan y="0" x="-18.625 -6.0246889 6.1996309">APR</tspan></text>
<text fill="#ffffff" xml:space="preserve" transform="matrix(.75 0 0 .75 337.7798 420.31727)" font-size="18.79" font-family="CanvaSans"><tspan y="0" x="-20.03125 -3.0565949 8.506958">MAY</tspan></text>
<text fill="#ffffff" xml:space="preserve" transform="matrix(.75 0 0 .75 396.37498 419.94227)" font-size="18.79" font-family="CanvaSans"><tspan y="0" x="-19.25 -8.859787 4.960205">JUN</tspan></text>
<text fill="#ffffff" xml:space="preserve" transform="matrix(.75 0 0 .75 452.72016 419.94227)" font-size="18.79" font-family="CanvaSans"><tspan y="0" x="-17.421875 -7.031662 6.78833">JUL</tspan></text>
<text fill="#ffffff" xml:space="preserve" transform="matrix(.75 0 0 .75 510.56538 419.94227)" font-size="18.79" font-family="CanvaSans"><tspan y="0" x="-20.03125 -7.7337038 6.2055056">AGU</tspan></text>
<text fill="#ffffff" xml:space="preserve" transform="matrix(.75 0 0 .75 566.91049 419.94227)" font-size="18.79" font-family="CanvaSans"><tspan y="0" x="-17.515625 -6.024948 5.300659">SEP</tspan></text>
<text fill="#ffffff" xml:space="preserve" transform="matrix(.75 0 0 .75 623.6307 419.94227)" font-size="18.79" font-family="CanvaSans"><tspan y="0" x="-18.75 -4.0404665 7.7895205">OKT</tspan></text>
<text fill="#ffffff" xml:space="preserve" transform="matrix(.75 0 0 .75 680.3508 419.94227)" font-size="18.79" font-family="CanvaSans"><tspan y="0" x="-19.265625 -5.014618 6.1183168">DEC</tspan></text>
<text fill="#ffffff" xml:space="preserve" transform="matrix(.75 0 0 .75 66.59881 406.5172)" font-size="18.79" font-family="CanvaSans"><tspan y="0" x="-6.59375">0</tspan></text>
<text fill="#ffffff" xml:space="preserve" transform="matrix(.75 0 0 .75 62.848814 340.67344)" font-size="18.79" font-family="CanvaSans"><tspan y="0" x="-11.421875 -1.774643">10</tspan></text>
<text fill="#ffffff" xml:space="preserve" transform="matrix(.75 0 0 .75 62.848814 274.82954)" font-size="18.79" font-family="CanvaSans"><tspan y="0" x="-11.75 -1.4423218">20</tspan></text>
<text fill="#ffffff" xml:space="preserve" transform="matrix(.75 0 0 .75 62.848814 208.9857)" font-size="18.79" font-family="CanvaSans"><tspan y="0" x="-12.046875 -1.1522827">30</tspan></text>
<text fill="#ffffff" xml:space="preserve" transform="matrix(.75 0 0 .75 62.098814 143.14189)" font-size="18.79" font-family="CanvaSans"><tspan y="0" x="-12.28125 -.9189606">40</tspan></text>
<g opacity=".25">
<g clip-path="url(#clip_3)">
<path transform="matrix(.75,0,0,.75,81.601528,138.26689)" stroke-width="1" stroke-linecap="butt" stroke-miterlimit="4" stroke-linejoin="miter" fill="none" stroke="#ffffff" d="M0 263.37535H837.3958"/>
<path transform="matrix(.75,0,0,.75,81.601528,138.26689)" stroke-width="1" stroke-linecap="butt" stroke-miterlimit="4" stroke-linejoin="miter" fill="none" stroke="#ffffff" d="M0 175.58354H837.3958"/>
<path transform="matrix(.75,0,0,.75,81.601528,138.26689)" stroke-width="1" stroke-linecap="butt" stroke-miterlimit="4" stroke-linejoin="miter" fill="none" stroke="#ffffff" d="M0 87.79177H837.3958"/>
<path transform="matrix(.75,0,0,.75,81.601528,138.26689)" stroke-width="1" stroke-linecap="butt" stroke-miterlimit="4" stroke-linejoin="miter" fill="none" stroke="#ffffff" d="M0 0H837.3958"/>
</g>
</g>
<g opacity=".6">
<g clip-path="url(#clip_4)">
<path transform="matrix(.75,0,0,.75,81.601528,138.2669)" stroke-width="1" stroke-linecap="butt" stroke-miterlimit="4" stroke-linejoin="miter" fill="none" stroke="#ffffff" d="M0 351.16709H837.3958"/>
</g>
</g>
<path transform="matrix(.75,0,0,.75,81.601528,138.26689)" d="M38.063447 193.1419 114.19034 122.908489"/>
<path transform="matrix(.75,0,0,.75,81.601528,138.26689)" stroke-width="2" stroke-linecap="round" stroke-miterlimit="4" stroke-linejoin="miter" fill="none" stroke="#ff5757" d="M38.063447 193.1419 114.19034 122.908489"/>
<path transform="matrix(.75,0,0,.75,81.601528,138.26689)" d="M114.19034 122.908489 190.31723 149.24602"/>
<path transform="matrix(.75,0,0,.75,81.601528,138.26689)" stroke-width="2" stroke-linecap="round" stroke-miterlimit="4" stroke-linejoin="miter" fill="none" stroke="#ff5757" d="M114.19034 122.908489 190.31723 149.24602"/>
<path transform="matrix(.75,0,0,.75,81.601528,138.26689)" d="M190.31723 149.24602 266.44413 43.895887"/>
<path transform="matrix(.75,0,0,.75,81.601528,138.26689)" stroke-width="2" stroke-linecap="round" stroke-miterlimit="4" stroke-linejoin="miter" fill="none" stroke="#ff5757" d="M190.31723 149.24602 266.44413 43.895887"/>
<path transform="matrix(.75,0,0,.75,81.601528,138.26689)" d="M266.44413 43.895887 342.571 35.11671"/>
<path transform="matrix(.75,0,0,.75,81.601528,138.26689)" stroke-width="2" stroke-linecap="round" stroke-miterlimit="4" stroke-linejoin="miter" fill="none" stroke="#ff5757" d="M266.44413 43.895887 342.571 35.11671"/>
<path transform="matrix(.75,0,0,.75,81.601528,138.26689)" d="M342.571 35.11671 418.6979 70.23342"/>
<path transform="matrix(.75,0,0,.75,81.601528,138.26689)" stroke-width="2" stroke-linecap="round" stroke-miterlimit="4" stroke-linejoin="miter" fill="none" stroke="#ff5757" d="M342.571 35.11671 418.6979 70.23342"/>
<path transform="matrix(.75,0,0,.75,81.601528,138.26689)" d="M418.6979 70.23342 494.8248 175.58354"/>
<path transform="matrix(.75,0,0,.75,81.601528,138.26689)" stroke-width="2" stroke-linecap="round" stroke-miterlimit="4" stroke-linejoin="miter" fill="none" stroke="#ff5757" d="M418.6979 70.23342 494.8248 175.58354"/>
<path transform="matrix(.75,0,0,.75,81.601528,138.26689)" d="M494.8248 175.58354 570.9517 70.23342"/>
<path transform="matrix(.75,0,0,.75,81.601528,138.26689)" stroke-width="2" stroke-linecap="round" stroke-miterlimit="4" stroke-linejoin="miter" fill="none" stroke="#ff5757" d="M494.8248 175.58354 570.9517 70.23342"/>
<path transform="matrix(.75,0,0,.75,81.601528,138.26689)" d="M570.9517 70.23342 647.0786 87.79177"/>
<path transform="matrix(.75,0,0,.75,81.601528,138.26689)" stroke-width="2" stroke-linecap="round" stroke-miterlimit="4" stroke-linejoin="miter" fill="none" stroke="#ff5757" d="M570.9517 70.23342 647.0786 87.79177"/>
<path transform="matrix(.75,0,0,.75,81.601528,138.26689)" stroke-width="2" stroke-linecap="round" stroke-miterlimit="4" stroke-linejoin="miter" fill="none" stroke="#ff5757" d="M647.0786 87.79177H723.2055"/>
<path transform="matrix(.75,0,0,.75,81.601528,138.26689)" d="M723.2055 87.79177 799.3324 43.895887"/>
<path transform="matrix(.75,0,0,.75,81.601528,138.26689)" stroke-width="2" stroke-linecap="round" stroke-miterlimit="4" stroke-linejoin="miter" fill="none" stroke="#ff5757" d="M723.2055 87.79177 799.3324 43.895887"/>
<path transform="matrix(.75,0,0,.75,81.601528,138.26689)" d="M38.063447 245.81697 114.19034 201.92108"/>
<path transform="matrix(.75,0,0,.75,81.601528,138.26689)" stroke-width="2" stroke-linecap="round" stroke-miterlimit="4" stroke-linejoin="miter" fill="none" stroke="#765e8c" d="M38.063447 245.81697 114.19034 201.92108"/>
<path transform="matrix(.75,0,0,.75,81.601528,138.26689)" d="M114.19034 201.92108 190.31723 105.35013"/>
<path transform="matrix(.75,0,0,.75,81.601528,138.26689)" stroke-width="2" stroke-linecap="round" stroke-miterlimit="4" stroke-linejoin="miter" fill="none" stroke="#765e8c" d="M114.19034 201.92108 190.31723 105.35013"/>
<path transform="matrix(.75,0,0,.75,81.601528,138.26689)" d="M190.31723 105.35013 266.44413 131.68767"/>
<path transform="matrix(.75,0,0,.75,81.601528,138.26689)" stroke-width="2" stroke-linecap="round" stroke-miterlimit="4" stroke-linejoin="miter" fill="none" stroke="#765e8c" d="M190.31723 105.35013 266.44413 131.68767"/>
<path transform="matrix(.75,0,0,.75,81.601528,138.26689)" stroke-width="2" stroke-linecap="round" stroke-miterlimit="4" stroke-linejoin="miter" fill="none" stroke="#765e8c" d="M266.44413 131.68767H342.571"/>
<path transform="matrix(.75,0,0,.75,81.601528,138.26689)" d="M342.571 131.68767 418.6979 0"/>
<path transform="matrix(.75,0,0,.75,81.601528,138.26689)" stroke-width="2" stroke-linecap="round" stroke-miterlimit="4" stroke-linejoin="miter" fill="none" stroke="#765e8c" d="M342.571 131.68767 418.6979 0"/>
<path transform="matrix(.75,0,0,.75,81.601528,138.26689)" d="M418.6979 0 494.8248 43.895887"/>
<path transform="matrix(.75,0,0,.75,81.601528,138.26689)" stroke-width="2" stroke-linecap="round" stroke-miterlimit="4" stroke-linejoin="miter" fill="none" stroke="#765e8c" d="M418.6979 0 494.8248 43.895887"/>
<path transform="matrix(.75,0,0,.75,81.601528,138.26689)" d="M494.8248 43.895887 570.9517 8.779178"/>
<path transform="matrix(.75,0,0,.75,81.601528,138.26689)" stroke-width="2" stroke-linecap="round" stroke-miterlimit="4" stroke-linejoin="miter" fill="none" stroke="#765e8c" d="M494.8248 43.895887 570.9517 8.779178"/>
<path transform="matrix(.75,0,0,.75,81.601528,138.26689)" d="M570.9517 8.779178 647.0786 43.895887"/>
<path transform="matrix(.75,0,0,.75,81.601528,138.26689)" stroke-width="2" stroke-linecap="round" stroke-miterlimit="4" stroke-linejoin="miter" fill="none" stroke="#765e8c" d="M570.9517 8.779178 647.0786 43.895887"/>
<path transform="matrix(.75,0,0,.75,81.601528,138.26689)" stroke-width="2" stroke-linecap="round" stroke-miterlimit="4" stroke-linejoin="miter" fill="none" stroke="#765e8c" d="M647.0786 43.895887H723.2055"/>
<path transform="matrix(.75,0,0,.75,81.601528,138.26689)" d="M723.2055 43.895887 799.3324 87.79177"/>
<path transform="matrix(.75,0,0,.75,81.601528,138.26689)" stroke-width="2" stroke-linecap="round" stroke-miterlimit="4" stroke-linejoin="miter" fill="none" stroke="#765e8c" d="M723.2055 43.895887 799.3324 87.79177"/>
<path transform="matrix(.75,0,0,.75,81.601528,138.26689)" d="M38.063447 280.9337 114.19034 263.37535"/>
<path transform="matrix(.75,0,0,.75,81.601528,138.26689)" stroke-width="2" stroke-linecap="round" stroke-miterlimit="4" stroke-linejoin="miter" fill="none" stroke="#6b765f" d="M38.063447 280.9337 114.19034 263.37535"/>
<path transform="matrix(.75,0,0,.75,81.601528,138.26689)" stroke-width="2" stroke-linecap="round" stroke-miterlimit="4" stroke-linejoin="miter" fill="none" stroke="#6b765f" d="M114.19034 263.37535H190.31723"/>
<path transform="matrix(.75,0,0,.75,81.601528,138.26689)" d="M190.31723 263.37535 266.44413 193.1419"/>
<path transform="matrix(.75,0,0,.75,81.601528,138.26689)" stroke-width="2" stroke-linecap="round" stroke-miterlimit="4" stroke-linejoin="miter" fill="none" stroke="#6b765f" d="M190.31723 263.37535 266.44413 193.1419"/>
<path transform="matrix(.75,0,0,.75,81.601528,138.26689)" d="M266.44413 193.1419 342.571 245.81697"/>
<path transform="matrix(.75,0,0,.75,81.601528,138.26689)" stroke-width="2" stroke-linecap="round" stroke-miterlimit="4" stroke-linejoin="miter" fill="none" stroke="#6b765f" d="M266.44413 193.1419 342.571 245.81697"/>
<path transform="matrix(.75,0,0,.75,81.601528,138.26689)" d="M342.571 245.81697 418.6979 219.47943"/>
<path transform="matrix(.75,0,0,.75,81.601528,138.26689)" stroke-width="2" stroke-linecap="round" stroke-miterlimit="4" stroke-linejoin="miter" fill="none" stroke="#6b765f" d="M342.571 245.81697 418.6979 219.47943"/>
<path transform="matrix(.75,0,0,.75,81.601528,138.26689)" d="M418.6979 219.47943 494.8248 131.68767"/>
<path transform="matrix(.75,0,0,.75,81.601528,138.26689)" stroke-width="2" stroke-linecap="round" stroke-miterlimit="4" stroke-linejoin="miter" fill="none" stroke="#6b765f" d="M418.6979 219.47943 494.8248 131.68767"/>
<path transform="matrix(.75,0,0,.75,81.601528,138.26689)" d="M494.8248 131.68767 570.9517 175.58354"/>
<path transform="matrix(.75,0,0,.75,81.601528,138.26689)" stroke-width="2" stroke-linecap="round" stroke-miterlimit="4" stroke-linejoin="miter" fill="none" stroke="#6b765f" d="M494.8248 131.68767 570.9517 175.58354"/>
<path transform="matrix(.75,0,0,.75,81.601528,138.26689)" d="M570.9517 175.58354 647.0786 193.1419"/>
<path transform="matrix(.75,0,0,.75,81.601528,138.26689)" stroke-width="2" stroke-linecap="round" stroke-miterlimit="4" stroke-linejoin="miter" fill="none" stroke="#6b765f" d="M570.9517 175.58354 647.0786 193.1419"/>
<path transform="matrix(.75,0,0,.75,81.601528,138.26689)" d="M647.0786 193.1419 723.2055 201.92108"/>
<path transform="matrix(.75,0,0,.75,81.601528,138.26689)" stroke-width="2" stroke-linecap="round" stroke-miterlimit="4" stroke-linejoin="miter" fill="none" stroke="#6b765f" d="M647.0786 193.1419 723.2055 201.92108"/>
<path transform="matrix(.75,0,0,.75,81.601528,138.26689)" d="M723.2055 201.92108 799.3324 245.81697"/>
<path transform="matrix(.75,0,0,.75,81.601528,138.26689)" stroke-width="2" stroke-linecap="round" stroke-miterlimit="4" stroke-linejoin="miter" fill="none" stroke="#6b765f" d="M723.2055 201.92108 799.3324 245.81697"/>
<path transform="matrix(.75,0,0,.75,81.601528,138.26689)" d="M47.063447 193.1419C47.063447 192.55095 47.005804 191.96569 46.89051 191.3861 46.775224 190.80649 46.604505 190.24372 46.378358 189.69774 46.15221 189.15178 45.87498 188.63312 45.54667 188.14177 45.218358 187.65042 44.84527 187.1958 44.427408 186.77794 44.00954 186.36008 43.55493 185.987 43.063577 185.65868 42.572225 185.33036 42.053564 185.05313 41.507596 184.82698 40.96163 184.60083 40.39885 184.43013 39.819257 184.31485 39.239664 184.19957 38.654394 184.14192 38.063447 184.1419 37.472497 184.14192 36.887224 184.19956 36.30763 184.31484 35.728036 184.43012 35.165254 184.60083 34.61929 184.82698 34.073324 185.05313 33.55466 185.33036 33.06331 185.65868 32.571958 185.987 32.117349 186.36008 31.699482 186.77794 31.281619 187.1958 30.908528 187.65042 30.580214 188.14177 30.2519 188.63312 29.974669 189.15178 29.748524 189.69774 29.522379 190.24372 29.351662 190.80649 29.236374 191.3861 29.121088 191.96569 29.063445 192.55095 29.063446 193.1419 29.063445 193.73284 29.121088 194.31812 29.236374 194.89772 29.351662 195.4773 29.522379 196.04007 29.748524 196.58605 29.974669 197.132 30.2519 197.65067 30.580214 198.14202 30.908528 198.63338 31.281619 199.088 31.699482 199.50586 32.117349 199.92372 32.571958 200.2968 33.06331 200.6251 33.55466 200.95342 34.073324 201.23065 34.61929 201.4568 35.165254 201.68296 35.728036 201.85367 36.30763 201.96897 36.887224 202.08426 37.472497 202.1419 38.063447 202.1419 38.654394 202.1419 39.239664 202.08426 39.819257 201.96895 40.39885 201.85367 40.96163 201.68296 41.507596 201.4568 42.053564 201.23065 42.572225 200.95342 43.063577 200.6251 43.55493 200.2968 44.00954 199.92372 44.427408 199.50586 44.84527 199.088 45.218358 198.63338 45.54667 198.14202 45.87498 197.65067 46.15221 197.132 46.378358 196.58605 46.604505 196.04007 46.775224 195.4773 46.89051 194.8977 47.005804 194.3181 47.063447 193.73284 47.063447 193.1419Z" fill="#ff5757"/>
<path transform="matrix(.75,0,0,.75,81.601528,138.26689)" d="M123.19034 122.908489C123.19033 122.317539 123.13268 121.73226 123.017398 121.152667 122.9021 120.57307 122.731388 120.01029 122.50524 119.464328 122.27909 118.91836 122.00186 118.3997 121.673549 117.90834 121.34523 117.416988 120.972148 116.96238 120.55429 116.54452 120.13642 116.126659 119.68181 115.75357 119.19045 115.425258 118.6991 115.09694 118.18044 114.81971 117.634479 114.59357 117.08851 114.367427 116.52573 114.19672 115.946147 114.08143 115.366558 113.96614 114.78129 113.90849 114.19034 113.90849 113.59938 113.90849 113.01411 113.96613 112.43452 114.08142 111.85492 114.19671 111.29214 114.36743 110.74618 114.593578 110.20021 114.81972 109.68156 115.09695 109.1902 115.42526 108.698848 115.75357 108.24423 116.126659 107.82637 116.54452 107.4085 116.96238 107.03541 117.416988 106.70709 117.90834 106.37878 118.3997 106.10155 118.91836 105.875408 119.46432 105.64926 120.010288 105.478549 120.57307 105.36326 121.152667 105.24797 121.73226 105.19033 122.317539 105.19034 122.908489 105.19033 123.49943 105.24797 124.084697 105.36326 124.66429 105.478549 125.24388 105.64927 125.806659 105.87541 126.35262 106.101558 126.89858 106.378787 127.417247 106.7071 127.90861 107.035419 128.39997 107.4085 128.85459 107.82637 129.27245 108.24423 129.6903 108.69884 130.06339 109.19019 130.39171 109.68155 130.72003 110.20021 130.99726 110.74618 131.2234 111.29214 131.44956 111.85492 131.62027 112.43452 131.73557 113.01411 131.85085 113.59938 131.9085 114.19034 131.9085 114.78129 131.9085 115.366558 131.85085 115.94614 131.73555 116.52573 131.62027 117.08851 131.44956 117.634479 131.2234 118.18044 130.99726 118.699108 130.72003 119.19046 130.39171 119.681819 130.06339 120.13642 129.6903 120.55429 129.27245 120.972148 128.85459 121.34524 128.39997 121.67355 127.9086 122.00186 127.417247 122.27909 126.89858 122.50524 126.35262 122.731388 125.806659 122.9021 125.24388 123.017398 124.66428 123.13268 124.084697 123.19033 123.49943 123.19034 122.908489Z" fill="#ff5757"/>
<path transform="matrix(.75,0,0,.75,81.601528,138.26689)" d="M199.31723 149.24602C199.31722 148.65506 199.25957 148.06978 199.14427 147.49019 199.02899 146.91059 198.85826 146.34781 198.63211 145.80184 198.40596 145.25588 198.12873 144.73722 197.80042 144.24585 197.4721 143.7545 197.09903 143.2999 196.68119 142.88204 196.2633 142.46417 195.80869 142.0911 195.31734 141.76277 194.82599 141.43447 194.30733 141.15724 193.76137 140.93109 193.2154 140.70494 192.65262 140.53424 192.07303 140.41896 191.49343 140.30367 190.90816 140.24602 190.31723 140.24602 189.72628 140.24602 189.141 140.30367 188.5614 140.41896 187.98181 140.53424 187.41904 140.70494 186.87306 140.93109 186.3271 141.15724 185.80844 141.43447 185.31708 141.76277 184.82573 142.0911 184.37113 142.46417 183.95326 142.88204 183.5354 143.2999 183.16231 143.75452 182.834 144.24587 182.50568 144.73722 182.22844 145.25588 182.00229 145.80185 181.77616 146.34781 181.60544 146.91059 181.49016 147.49019 181.37488 148.06978 181.31723 148.65506 181.31723 149.24602 181.31723 149.83696 181.37488 150.42223 181.49016 151.00183 181.60544 151.58142 181.77616 152.1442 182.00229 152.69017 182.22844 153.23613 182.50566 153.75479 182.83399 154.24614 183.16231 154.7375 183.5354 155.19211 183.95326 155.60997 184.37113 156.02783 184.82573 156.40093 185.31708 156.72924 185.80844 157.05754 186.3271 157.33477 186.87306 157.56092 187.41904 157.78707 187.98181 157.95778 188.56142 158.07308 189.141 158.18836 189.72628 158.246 190.31723 158.24602 190.90816 158.246 191.49343 158.18836 192.07302 158.07308 192.65262 157.95778 193.2154 157.78707 193.76137 157.56092 194.30733 157.33477 194.82599 157.05754 195.31734 156.72924 195.80869 156.40093 196.2633 156.02783 196.68119 155.60997 197.09903 155.19211 197.4721 154.7375 197.80042 154.24614 198.12873 153.75479 198.40596 153.23613 198.63211 152.69017 198.85826 152.1442 199.02899 151.58142 199.1443 151.00183 199.25959 150.42223 199.31722 149.83696 199.31723 149.24602Z" fill="#ff5757"/>
<path transform="matrix(.75,0,0,.75,81.601528,138.26689)" d="M275.44413 43.895887C275.4441 43.304937 275.3864 42.71966 275.27116 42.140069 275.15589 41.560476 274.98518 40.997694 274.759 40.45173 274.53288 39.90576 274.25566 39.3871 273.92735 38.89575 273.59904 38.404397 273.22596 37.949789 272.80809 37.531927 272.3902 37.11406 271.93559 36.74097 271.4442 36.41266 270.95286 36.084344 270.43418 35.807115 269.8882 35.58097 269.3423 35.354825 268.7795 35.18411 268.1999 35.068819 267.62034 34.953535 267.03507 34.89589 266.44413 34.895887 265.85316 34.89589 265.26789 34.953535 264.68827 35.068819 264.1087 35.184106 263.54594 35.35482 262.99995 35.580968 262.45396 35.807115 261.9353 36.084344 261.44398 36.41266 260.9526 36.74097 260.498 37.11406 260.08015 37.531927 259.66227 37.949789 259.28916 38.404397 258.96086 38.895753 258.63255 39.387105 258.35533 39.905767 258.12919 40.451734 257.90306 40.997697 257.73234 41.560476 257.61705 42.140069 257.50178 42.71966 257.44413 43.304937 257.44413 43.895887 257.44413 44.48683 257.50178 45.0721 257.61705 45.65169 257.73234 46.231287 257.90306 46.794069 258.12919 47.34003 258.35533 47.885995 258.63255 48.404657 258.96086 48.89601 259.28916 49.387369 259.66227 49.84198 260.08015 50.259847 260.498 50.677705 260.9526 51.050794 261.44398 51.37911 261.9353 51.70742 262.45396 51.98465 262.99995 52.210798 263.54594 52.436944 264.1087 52.607664 264.68827 52.72295 265.26789 52.83824 265.85316 52.895887 266.44413 52.895887 267.03507 52.895887 267.62034 52.83824 268.19993 52.72295 268.7795 52.60766 269.3423 52.43694 269.88825 52.210794 270.4342 51.984647 270.95286 51.707418 271.4442 51.379106 271.93559 51.050794 272.3902 50.677705 272.80809 50.259847 273.22596 49.84198 273.59904 49.387369 273.92735 48.89601 274.25566 48.404657 274.53288 47.885995 274.759 47.34003 274.98518 46.794069 275.15589 46.23129 275.27116 45.651697 275.3864 45.0721 275.4441 44.48683 275.44413 43.895887Z" fill="#ff5757"/>
<path transform="matrix(.75,0,0,.75,81.601528,138.26689)" d="M351.571 35.11671C351.57099 34.52576 351.5133 33.94049 351.39805 33.360898 351.2827 32.781305 351.112 32.21852 350.88587 31.672556 350.65974 31.12659 350.3825 30.607932 350.05418 30.116578 349.7259 29.625222 349.3528 29.170613 348.93495 28.752749 348.51707 28.334885 348.06245 27.961794 347.5711 27.63348 347.07975 27.305167 346.56108 27.027937 346.0151 26.801793 345.46916 26.575648 344.90638 26.40493 344.3268 26.28964 343.74723 26.174355 343.16197 26.11671 342.571 26.11671 341.98005 26.11671 341.39479 26.174355 340.81517 26.28964 340.23558 26.40493 339.6728 26.575648 339.12684 26.801793 338.58085 27.027937 338.0622 27.305167 337.57087 27.63348 337.0795 27.961794 336.62489 28.334885 336.20704 28.752749 335.78916 29.170613 335.41609 29.625222 335.08778 30.116578 334.75944 30.607932 334.4822 31.12659 334.25605 31.672556 334.0299 32.21852 333.8592 32.781305 333.74394 33.360898 333.62867 33.94049 333.571 34.52576 333.571 35.11671 333.571 35.707658 333.62867 36.292928 333.74394 36.87252 333.8592 37.452116 334.0299 38.014894 334.25605 38.560857 334.4822 39.10682 334.75944 39.625478 335.08778 40.116838 335.41609 40.608194 335.78916 41.0628 336.20704 41.480669 336.62489 41.89853 337.0795 42.271619 337.57087 42.59993 338.0622 42.92824 338.58085 43.20547 339.12684 43.431619 339.6728 43.657766 340.23558 43.82848 340.81517 43.943769 341.39479 44.05906 341.98005 44.116704 342.571 44.116708 343.16197 44.116704 343.74723 44.05906 344.3268 43.943769 344.90638 43.82848 345.46916 43.657766 346.0151 43.431619 346.56108 43.20547 347.0797 42.92824 347.57109 42.59993 348.06245 42.271619 348.51707 41.89853 348.93495 41.480669 349.3528 41.0628 349.7259 40.608194 350.05418 40.116838 350.3825 39.625478 350.65974 39.10682 350.88587 38.560857 351.112 38.014894 351.2827 37.452116 351.39805 36.87252 351.5133 36.292928 351.57099 35.707658 351.571 35.11671Z" fill="#ff5757"/>
<path transform="matrix(.75,0,0,.75,81.601528,138.26689)" d="M427.6979 70.23342C427.6979 69.64247 427.64027 69.0572 427.52497 68.47761 427.40965 67.89801 427.23893 67.33523 427.0128 66.78926 426.78663 66.24329 426.5094 65.72463 426.18107 65.23328 425.85276 64.74192 425.47969 64.287319 425.06184 63.869455 424.64396 63.451589 424.18937 63.078504 423.698 62.75019 423.20668 62.421876 422.68803 62.144647 422.14207 61.918504 421.59608 61.692358 421.0333 61.52164 420.45368 61.40635 419.8741 61.291067 419.28886 61.23342 418.69795 61.23342 418.10697 61.23342 417.5217 61.291067 416.94209 61.406354 416.36247 61.52164 415.79969 61.692358 415.25376 61.918504 414.7078 62.144647 414.18916 62.421876 413.69779 62.750188 413.20643 63.0785 412.75184 63.451589 412.33396 63.869455 411.91609 64.287319 411.54298 64.74192 411.21467 65.23327 410.88633 65.724628 410.6091 66.24329 410.38294 66.78926 410.1568 67.33523 409.98609 67.898 409.8708 68.4776 409.75553 69.0572 409.69789 69.64247 409.6979 70.23342 409.69789 70.82437 409.75553 71.40964 409.87083 71.98923 409.98609 72.56881 410.1568 73.13159 410.38298 73.67756 410.60914 74.223529 410.88636 74.74218 411.21467 75.233539 411.54298 75.72489 411.91606 76.1795 412.33393 76.59737 412.75178 77.01523 413.2064 77.38832 413.69776 77.71664 414.1891 78.044948 414.70774 78.322177 415.25373 78.548328 415.79969 78.77447 416.3625 78.94518 416.9421 79.06048 417.5217 79.175769 418.10697 79.233409 418.69795 79.23341 419.28886 79.233409 419.8741 79.175769 420.4537 79.06048 421.0333 78.94518 421.59608 78.77447 422.14207 78.548328 422.68803 78.322177 423.20668 78.044948 423.69804 77.71664 424.1894 77.38832 424.64399 77.015239 425.06187 76.597377 425.4797 76.179508 425.85279 75.72489 426.18107 75.233539 426.5094 74.74218 426.78663 74.223529 427.01277 73.67756 427.23893 73.13159 427.40965 72.56881 427.52497 71.98923 427.64027 71.40964 427.6979 70.82437 427.6979 70.23342Z" fill="#ff5757"/>
<path transform="matrix(.75,0,0,.75,81.601528,138.26689)" d="M503.8248 175.58354C503.8248 174.99259 503.76716 174.40732 503.65184 173.82772 503.53654 173.24811 503.3658 172.68532 503.13969 172.13936 502.91355 171.59339 502.63633 171.07472 502.30799 170.58338 501.9797 170.09203 501.60664 169.63742 501.18876 169.21956 500.77088 168.8017 500.31626 168.4286 499.8249 168.1003 499.33354 167.77198 498.81489 167.49475 498.26893 167.26862 497.72297 167.04247 497.1602 166.87175 496.5806 166.75647 496.00099 166.64119 495.4157 166.58354 494.8248 166.58354 494.23384 166.58354 493.64854 166.64119 493.06895 166.75647 492.48933 166.87175 491.92655 167.04247 491.38059 167.26862 490.8346 167.49475 490.31596 167.77198 489.82463 168.1003 489.33326 168.4286 488.87867 168.8017 488.46083 169.21956 488.04295 169.63742 487.66987 170.09203 487.34156 170.58338 487.0132 171.07474 486.736 171.5934 486.50984 172.13938 486.2837 172.68534 486.11299 173.24813 485.9977 173.82773 485.88243 174.40732 485.82478 174.99259 485.8248 175.58354 485.82478 176.17447 485.88243 176.75975 485.9977 177.33936 486.11299 177.91893 486.2837 178.48172 486.50984 179.0277 486.736 179.57364 487.0132 180.0923 487.34153 180.58367 487.66987 181.07501 488.04295 181.52962 488.46083 181.9475 488.87867 182.36536 489.33326 182.73844 489.82463 183.06676 490.31596 183.39507 490.8346 183.67229 491.38059 183.89844 491.92655 184.12459 492.48933 184.2953 493.06895 184.4106 493.64854 184.5259 494.23384 184.58354 494.8248 184.58354 495.4157 184.58354 496.00099 184.5259 496.5806 184.4106 497.1602 184.2953 497.72297 184.12459 498.26893 183.89844 498.81489 183.67229 499.33354 183.39507 499.8249 183.06676 500.31626 182.73844 500.77088 182.36536 501.18876 181.9475 501.60664 181.52962 501.9797 181.07501 502.30799 180.58367 502.63633 180.0923 502.91355 179.57364 503.13969 179.0277 503.3658 178.48172 503.53654 177.91893 503.65184 177.33936 503.76716 176.75975 503.8248 176.17447 503.8248 175.58354Z" fill="#ff5757"/>
<path transform="matrix(.75,0,0,.75,81.601528,138.26689)" d="M579.9517 70.23342C579.95169 69.64247 579.89407 69.0572 579.77877 68.47761 579.66348 67.89801 579.49276 67.33523 579.2666 66.78926 579.04049 66.24329 578.76327 65.72463 578.43496 65.23328 578.1066 64.74192 577.7335 64.287319 577.3157 63.869455 576.8978 63.451589 576.44326 63.078504 575.95187 62.75019 575.46047 62.421876 574.9418 62.144647 574.3958 61.918504 573.84988 61.692358 573.28707 61.52164 572.70748 61.40635 572.12789 61.291067 571.5426 61.23342 570.9517 61.23342 570.3607 61.23342 569.77548 61.291067 569.19589 61.406354 568.6162 61.52164 568.05349 61.692358 567.5075 61.918504 566.96157 62.144647 566.44296 62.421876 565.95156 62.750188 565.4602 63.0785 565.0056 63.451589 564.5877 63.869455 564.1698 64.287319 563.79678 64.74192 563.46847 65.23327 563.14016 65.724628 562.86288 66.24329 562.6367 66.78926 562.4106 67.33523 562.23989 67.898 562.1246 68.4776 562.00936 69.0572 561.9517 69.64247 561.9517 70.23342 561.9517 70.82437 562.00936 71.40964 562.1246 71.98923 562.23989 72.56881 562.4106 73.13159 562.6367 73.67756 562.86288 74.223529 563.14016 74.74218 563.46847 75.233539 563.79678 75.72489 564.1698 76.1795 564.5877 76.59737 565.0056 77.01523 565.4602 77.38832 565.9516 77.71664 566.44296 78.044948 566.96157 78.322177 567.5075 78.548328 568.05349 78.77447 568.6162 78.94518 569.1958 79.06048 569.77548 79.175769 570.3607 79.233409 570.9517 79.23341 571.5426 79.233409 572.12789 79.175769 572.70748 79.06048 573.28707 78.94518 573.84988 78.77447 574.3958 78.548328 574.9418 78.322177 575.46047 78.044948 575.95187 77.71664 576.44326 77.38832 576.8978 77.015239 577.3157 76.597377 577.7335 76.179508 578.1066 75.72489 578.43496 75.233539 578.76327 74.74218 579.04049 74.223529 579.2666 73.67756 579.49276 73.13159 579.66348 72.56881 579.77877 71.98923 579.89407 71.40964 579.95169 70.82437 579.9517 70.23342Z" fill="#ff5757"/>
<path transform="matrix(.75,0,0,.75,81.601528,138.26689)" d="M656.0786 87.79177C656.07858 87.20082 656.02096 86.61554 655.90567 86.03594 655.79037 85.456348 655.6196 84.89357 655.3935 84.3476 655.1673 83.801639 654.8901 83.28298 654.56179 82.791629 654.23348 82.30027 653.86038 81.845668 653.4425 81.4278 653.0246 81.00993 652.57 80.63685 652.0787 80.30854 651.5873 79.980228 651.0686 79.702999 650.52267 79.47685 649.9767 79.25071 649.41397 79.079998 648.83438 78.96471 648.25479 78.84942 647.6695 78.79177 647.0786 78.79177 646.4877 78.79177 645.9024 78.84941 645.32278 78.9647 644.7431 79.07999 644.18038 79.2507 643.6344 79.476848 643.08847 79.70299 642.56979 79.98022 642.0784 80.30853 641.58706 80.63685 641.13247 81.00993 640.7146 81.4278 640.2967 81.845668 639.92367 82.30027 639.59536 82.791629 639.267 83.28298 638.98977 83.80164 638.7636 84.34761 638.5375 84.89357 638.36679 85.45635 638.25149 86.03595 638.1362 86.61555 638.0786 87.20082 638.0786 87.79177 638.0786 88.38271 638.1362 88.96798 638.25149 89.54757 638.36679 90.12717 638.5375 90.68994 638.7636 91.23591 638.98977 91.781879 639.267 92.30053 639.59536 92.791889 639.92367 93.28324 640.2967 93.737857 640.7146 94.15572 641.13247 94.57358 641.58706 94.94667 642.0784 95.27499 642.56979 95.603298 643.08847 95.88052 643.6344 96.10668 644.18038 96.332828 644.7431 96.50354 645.32278 96.618839 645.9024 96.734119 646.4877 96.79176 647.0786 96.79177 647.6695 96.79176 648.25479 96.734119 648.83438 96.618839 649.41397 96.50354 649.9767 96.332828 650.52267 96.10668 651.0686 95.88052 651.5873 95.603298 652.0786 95.27499 652.57 94.94667 653.0246 94.57358 653.4425 94.15572 653.86038 93.737857 654.2334 93.28324 654.5617 92.791889 654.89 92.30053 655.1673 91.781879 655.3935 91.23591 655.6196 90.68994 655.79037 90.12717 655.90567 89.54758 656.02096 88.96798 656.07858 88.38271 656.0786 87.79177Z" fill="#ff5757"/>
<path transform="matrix(.75,0,0,.75,81.601528,138.26689)" d="M732.2055 87.79177C732.20547 87.20082 732.1478 86.61554 732.03256 86.03594 731.91726 85.456348 731.7465 84.89357 731.5204 84.3476 731.2942 83.801639 731.01699 83.28298 730.68869 82.791629 730.36038 82.30027 729.98727 81.845668 729.56948 81.4278 729.15158 81.00993 728.69699 80.63685 728.2056 80.30854 727.71426 79.980228 727.1956 79.702999 726.64968 79.47685 726.1037 79.25071 725.54098 79.079998 724.96139 78.96471 724.3818 78.84942 723.7965 78.79177 723.20559 78.79177 722.61459 78.79177 722.0293 78.84941 721.44967 78.9647 720.87 79.07999 720.30728 79.2507 719.7613 79.476848 719.21536 79.70299 718.69668 79.98022 718.2053 80.30853 717.7139 80.63685 717.25936 81.00993 716.84158 81.4278 716.42367 81.845668 716.05056 82.30027 715.7222 82.791629 715.3939 83.28298 715.1167 83.80164 714.89059 84.34761 714.6644 84.89357 714.4937 85.45635 714.3784 86.03595 714.2631 86.61555 714.2055 87.20082 714.2055 87.79177 714.2055 88.38271 714.2631 88.96798 714.3784 89.54757 714.4937 90.12717 714.6644 90.68994 714.89059 91.23591 715.1167 91.781879 715.3939 92.30053 715.7222 92.791889 716.05056 93.28324 716.42367 93.737857 716.84158 94.15572 717.25936 94.57358 717.7139 94.94667 718.2053 95.27499 718.69668 95.603298 719.21536 95.88052 719.7613 96.10668 720.30728 96.332828 720.87 96.50354 721.44967 96.618839 722.0293 96.734119 722.61459 96.79176 723.20559 96.79177 723.7965 96.79176 724.3818 96.734119 724.96139 96.618839 725.54098 96.50354 726.1037 96.332828 726.64968 96.10668 727.1956 95.88052 727.71426 95.603298 728.20559 95.27499 728.69699 94.94667 729.15158 94.57358 729.56948 94.15572 729.98727 93.737857 730.36038 93.28324 730.68869 92.791889 731.01699 92.30053 731.2942 91.781879 731.5204 91.23591 731.7465 90.68994 731.91726 90.12717 732.03256 89.54758 732.1478 88.96798 732.20547 88.38271 732.2055 87.79177Z" fill="#ff5757"/>
<path transform="matrix(.75,0,0,.75,81.601528,138.26689)" d="M808.3324 43.895887C808.33236 43.304937 808.27468 42.71966 808.15939 42.140069 808.04409 41.560476 807.87338 40.997694 807.6472 40.45173 807.4211 39.90576 807.1438 39.3871 806.8155 38.89575 806.4872 38.404397 806.11416 37.949789 805.6963 37.531927 805.2784 37.11406 804.8237 36.74097 804.33236 36.41266 803.841 36.084344 803.3224 35.807115 802.7764 35.58097 802.23049 35.354825 801.6677 35.18411 801.0882 35.068819 800.5086 34.953535 799.92337 34.89589 799.3324 34.895887 798.7414 34.89589 798.1561 34.953535 797.57656 35.068819 796.9969 35.184106 796.43417 35.35482 795.8882 35.580968 795.34219 35.807115 794.8235 36.084344 794.3321 36.41266 793.8408 36.74097 793.3862 37.11406 792.9684 37.531927 792.5505 37.949789 792.17739 38.404397 791.84909 38.895753 791.52078 39.387105 791.2435 39.905767 791.0174 40.451734 790.79129 40.997697 790.62057 41.560476 790.5053 42.140069 790.39 42.71966 790.3324 43.304937 790.3324 43.895887 790.3324 44.48683 790.39 45.0721 790.50527 45.65169 790.62057 46.231287 790.79129 46.794069 791.0174 47.34003 791.2435 47.885995 791.52078 48.404657 791.849 48.89601 792.17739 49.387369 792.5505 49.84198 792.9684 50.259847 793.3862 50.677705 793.8408 51.050794 794.33218 51.37911 794.8235 51.70742 795.34219 51.98465 795.8882 52.210798 796.43417 52.436944 796.9969 52.607664 797.57656 52.72295 798.1561 52.83824 798.7414 52.895887 799.3324 52.895887 799.92337 52.895887 800.5086 52.83824 801.0882 52.72295 801.6677 52.60766 802.23049 52.43694 802.7764 52.210794 803.3224 51.984647 803.841 51.707418 804.3324 51.379106 804.8237 51.050794 805.2784 50.677705 805.6963 50.259847 806.11416 49.84198 806.4872 49.387369 806.8155 48.89601 807.1438 48.404657 807.4211 47.885995 807.6473 47.34003 807.8734 46.794069 808.0441 46.23129 808.1594 45.651697 808.2747 45.0721 808.33236 44.48683 808.3324 43.895887Z" fill="#ff5757"/>
<path transform="matrix(.75,0,0,.75,81.601528,138.26689)" d="M47.063447 245.81697C47.063447 245.22602 47.005804 244.64073 46.89051 244.06113 46.775224 243.48154 46.604505 242.91876 46.378358 242.3728 46.15221 241.82683 45.87498 241.30817 45.54667 240.81682 45.218358 240.32547 44.84527 239.87085 44.427408 239.45299 44.00954 239.03513 43.55493 238.66204 43.063577 238.33373 42.572225 238.0054 42.053564 237.72818 41.507596 237.50205 40.96163 237.27591 40.39885 237.1052 39.819257 236.98992 39.239664 236.87464 38.654394 236.81699 38.063447 236.81699 37.472497 236.81699 36.887224 236.87464 36.30763 236.98992 35.728036 237.1052 35.165254 237.27591 34.61929 237.50205 34.073324 237.7282 33.55466 238.00542 33.06331 238.33373 32.571958 238.66205 32.117349 239.03514 31.699482 239.453 31.281619 239.87087 30.908528 240.32547 30.580214 240.81682 30.2519 241.30817 29.974669 241.82683 29.748524 242.3728 29.522379 242.91876 29.351662 243.48154 29.236374 244.06113 29.121088 244.64073 29.063445 245.22602 29.063446 245.81697 29.063445 246.40792 29.121088 246.99318 29.236374 247.57276 29.351662 248.15235 29.522379 248.71512 29.748524 249.26108 29.974669 249.80706 30.2519 250.32572 30.580214 250.81707 30.908528 251.30844 31.281619 251.76306 31.699482 252.18094 32.117349 252.59879 32.571958 252.97188 33.06331 253.3002 33.55466 253.62853 34.073324 253.90575 34.61929 254.1319 35.165254 254.35805 35.728036 254.52877 36.30763 254.64406 36.887224 254.75934 37.472497 254.81699 38.063447 254.81699 38.654394 254.81699 39.239664 254.75934 39.819257 254.64403 40.39885 254.52875 40.96163 254.35802 41.507596 254.13187 42.053564 253.90572 42.572225 253.6285 43.063577 253.30019 43.55493 252.97187 44.00954 252.59879 44.427408 252.18093 44.84527 251.76306 45.218358 251.30844 45.54667 250.81707 45.87498 250.32572 46.15221 249.80706 46.378358 249.26108 46.604505 248.71512 46.775224 248.15235 46.89051 247.57276 47.005804 246.99318 47.063447 246.40792 47.063447 245.81697Z" fill="#765e8c"/>
<path transform="matrix(.75,0,0,.75,81.601528,138.26689)" d="M123.19034 201.92108C123.19033 201.33013 123.13268 200.74485 123.017398 200.16524 122.9021 199.58565 122.731388 199.02288 122.50524 198.47692 122.27909 197.93094 122.00186 197.41228 121.673549 196.92093 121.34523 196.42958 120.972148 195.97498 120.55429 195.55712 120.13642 195.13925 119.68181 194.76616 119.19045 194.43784 118.6991 194.10953 118.18044 193.8323 117.634479 193.60616 117.08851 193.38 116.52573 193.20929 115.946147 193.09401 115.366558 192.97873 114.78129 192.92108 114.19034 192.92108 113.59938 192.92108 113.01411 192.97872 112.43452 193.094 111.85492 193.20929 111.29214 193.38 110.74618 193.60616 110.20021 193.8323 109.68156 194.10953 109.1902 194.43785 108.698848 194.76616 108.24423 195.13925 107.82637 195.55712 107.4085 195.97498 107.03541 196.42958 106.70709 196.92093 106.37878 197.41228 106.10155 197.93094 105.875408 198.47692 105.64926 199.02288 105.478549 199.58565 105.36326 200.16524 105.24797 200.74485 105.19033 201.33013 105.19034 201.92108 105.19033 202.51203 105.24797 203.09729 105.36326 203.67688 105.478549 204.25647 105.64927 204.81925 105.87541 205.36522 106.101558 205.91118 106.378787 206.42984 106.7071 206.92119 107.035419 207.41254 107.4085 207.86716 107.82637 208.28504 108.24423 208.70288 108.69884 209.07596 109.19019 209.40428 109.68155 209.7326 110.20021 210.00983 110.74618 210.23598 111.29214 210.46213 111.85492 210.63285 112.43452 210.74814 113.01411 210.86344 113.59938 210.92108 114.19034 210.92108 114.78129 210.92108 115.366558 210.86344 115.94614 210.74816 116.52573 210.63286 117.08851 210.46215 117.634479 210.236 118.18044 210.00984 118.699108 209.73262 119.19046 209.4043 119.681819 209.07598 120.13642 208.70288 120.55429 208.28504 120.972148 207.86716 121.34524 207.41254 121.67355 206.92119 122.00186 206.42984 122.27909 205.91118 122.50524 205.36522 122.731388 204.81925 122.9021 204.25647 123.017398 203.67688 123.13268 203.09729 123.19033 202.51203 123.19034 201.92108Z" fill="#765e8c"/>
<path transform="matrix(.75,0,0,.75,81.601528,138.26689)" d="M199.31723 105.35013C199.31722 104.75918 199.25957 104.1739 199.14427 103.59429 199.02899 103.0147 198.85826 102.45193 198.63211 101.90596 198.40596 101.35999 198.12873 100.84133 197.80042 100.349979 197.4721 99.85862 197.09903 99.404018 196.68119 98.98616 196.2633 98.56829 195.80869 98.195209 195.31734 97.86689 194.82599 97.53858 194.30733 97.26135 193.76137 97.03521 193.2154 96.80907 192.65262 96.63834 192.07303 96.523059 191.49343 96.40777 190.90816 96.35013 190.31723 96.35013 189.72628 96.35013 189.141 96.407779 188.5614 96.52306 187.98181 96.63835 187.41904 96.80906 186.87306 97.0352 186.3271 97.261348 185.80844 97.538578 185.31708 97.86689 184.82573 98.195209 184.37113 98.56829 183.95326 98.98616 183.5354 99.404018 183.16231 99.85862 182.834 100.349979 182.50568 100.84133 182.22844 101.35999 182.00229 101.90596 181.77616 102.45193 181.60544 103.0147 181.49016 103.5943 181.37488 104.1739 181.31723 104.75918 181.31723 105.35013 181.31723 105.94108 181.37488 106.52634 181.49016 107.10592 181.60544 107.68552 181.77616 108.2483 182.00229 108.794269 182.22844 109.34023 182.50566 109.858898 182.83399 110.35025 183.16231 110.841609 183.5354 111.29621 183.95326 111.71408 184.37113 112.13195 184.82573 112.505039 185.31708 112.83334 185.80844 113.16166 186.3271 113.43889 186.87306 113.66503 187.41904 113.891178 187.98181 114.0619 188.56142 114.177188 189.141 114.29248 189.72628 114.35013 190.31723 114.35013 190.90816 114.35013 191.49343 114.29248 192.07302 114.177188 192.65262 114.0619 193.2154 113.891178 193.76137 113.66503 194.30733 113.43889 194.82599 113.16166 195.31734 112.83334 195.80869 112.505039 196.2633 112.13195 196.68119 111.71408 197.09903 111.29621 197.4721 110.8416 197.80042 110.35024 198.12873 109.85889 198.40596 109.34023 198.63211 108.794269 198.85826 108.2483 199.02899 107.68552 199.1443 107.10593 199.25959 106.526348 199.31722 105.94108 199.31723 105.35013Z" fill="#765e8c"/>
<path transform="matrix(.75,0,0,.75,81.601528,138.26689)" d="M275.44413 131.68767C275.4441 131.09671 275.3864 130.51145 275.27116 129.93186 275.15589 129.35225 274.98518 128.78948 274.759 128.24352 274.53288 127.69755 274.25566 127.17888 273.92735 126.68752 273.59904 126.19617 273.22596 125.74156 272.80809 125.3237 272.3902 124.90583 271.93559 124.532749 271.4442 124.20443 270.95286 123.876117 270.43418 123.598888 269.8882 123.37274 269.3423 123.1466 268.7795 122.97588 268.1999 122.8606 267.62034 122.745319 267.03507 122.68767 266.44413 122.68767 265.85316 122.68767 265.26789 122.745319 264.68827 122.8606 264.1087 122.97588 263.54594 123.1466 262.99995 123.37275 262.45396 123.59889 261.9353 123.87612 261.44398 124.20443 260.9526 124.532749 260.498 124.90583 260.08015 125.3237 259.66227 125.74156 259.28916 126.19617 258.96086 126.68752 258.63255 127.17888 258.35533 127.69753 258.12919 128.2435 257.90306 128.78948 257.73234 129.35225 257.61705 129.93186 257.50178 130.51145 257.44413 131.09671 257.44413 131.68767 257.44413 132.2786 257.50178 132.86388 257.61705 133.44348 257.73234 134.02306 257.90306 134.58583 258.12919 135.1318 258.35533 135.67777 258.63255 136.19643 258.96086 136.68778 259.28916 137.17913 259.66227 137.63375 260.08015 138.05162 260.498 138.46949 260.9526 138.84258 261.44398 139.17089 261.9353 139.4992 262.45396 139.77643 262.99995 140.00258 263.54594 140.22873 264.1087 140.39946 264.68827 140.51474 265.26789 140.63002 265.85316 140.68767 266.44413 140.68767 267.03507 140.68767 267.62034 140.63002 268.19993 140.51474 268.7795 140.39946 269.3423 140.22873 269.88825 140.00258 270.4342 139.77643 270.95286 139.4992 271.4442 139.1709 271.93559 138.84258 272.3902 138.46949 272.80809 138.05162 273.22596 137.63375 273.59904 137.17913 273.92735 136.68778 274.25566 136.19643 274.53288 135.67777 274.759 135.1318 274.98518 134.58583 275.15589 134.02306 275.27116 133.44347 275.3864 132.86386 275.4441 132.2786 275.44413 131.68767Z" fill="#765e8c"/>
<path transform="matrix(.75,0,0,.75,81.601528,138.26689)" d="M351.571 131.68767C351.57099 131.09671 351.5133 130.51145 351.39805 129.93186 351.2827 129.35225 351.112 128.78948 350.88587 128.24352 350.65974 127.69755 350.3825 127.17888 350.05418 126.68752 349.7259 126.19617 349.3528 125.74156 348.93495 125.3237 348.51707 124.90583 348.06245 124.532749 347.5711 124.20443 347.07975 123.876117 346.56108 123.598888 346.0151 123.37274 345.46916 123.1466 344.90638 122.97588 344.3268 122.8606 343.74723 122.745319 343.16197 122.68767 342.571 122.68767 341.98005 122.68767 341.39479 122.745319 340.81517 122.8606 340.23558 122.97588 339.6728 123.1466 339.12684 123.37275 338.58085 123.59889 338.0622 123.87612 337.57087 124.20443 337.0795 124.532749 336.62489 124.90583 336.20704 125.3237 335.78916 125.74156 335.41609 126.19617 335.08778 126.68752 334.75944 127.17888 334.4822 127.69753 334.25605 128.2435 334.0299 128.78948 333.8592 129.35225 333.74394 129.93186 333.62867 130.51145 333.571 131.09671 333.571 131.68767 333.571 132.2786 333.62867 132.86388 333.74394 133.44348 333.8592 134.02306 334.0299 134.58583 334.25605 135.1318 334.4822 135.67777 334.75944 136.19643 335.08778 136.68778 335.41609 137.17913 335.78916 137.63375 336.20704 138.05162 336.62489 138.46949 337.0795 138.84258 337.57087 139.17089 338.0622 139.4992 338.58085 139.77643 339.12684 140.00258 339.6728 140.22873 340.23558 140.39946 340.81517 140.51474 341.39479 140.63002 341.98005 140.68767 342.571 140.68767 343.16197 140.68767 343.74723 140.63002 344.3268 140.51474 344.90638 140.39946 345.46916 140.22873 346.0151 140.00258 346.56108 139.77643 347.0797 139.4992 347.57109 139.1709 348.06245 138.84258 348.51707 138.46949 348.93495 138.05162 349.3528 137.63375 349.7259 137.17913 350.05418 136.68778 350.3825 136.19643 350.65974 135.67777 350.88587 135.1318 351.112 134.58583 351.2827 134.02306 351.39805 133.44347 351.5133 132.86386 351.57099 132.2786 351.571 131.68767Z" fill="#765e8c"/>
<path transform="matrix(.75,0,0,.75,81.601528,138.26689)" d="M427.6979 0C427.6979-.5909484 427.64027-1.1762192 427.52497-1.7558128 427.40965-2.335406 427.23893-2.8981853 427.0128-3.4441505 426.78663-3.9901157 426.5094-4.508776 426.18107-5.0001318 425.85276-5.491487 425.47969-5.946097 425.06184-6.3639605 424.64396-6.7818238 424.18937-7.1549117 423.698-7.483225 423.20668-7.811538 422.68803-8.088768 422.14207-8.314915 421.59608-8.54106 421.0333-8.711778 420.45368-8.827066 419.8741-8.942355 419.28886-8.999999 418.69795-9 418.10697-8.999999 417.5217-8.942355 416.94209-8.827066 416.36247-8.711778 415.79969-8.54106 415.25376-8.314915 414.7078-8.088768 414.18916-7.811538 413.69779-7.483225 413.20643-7.1549117 412.75184-6.7818238 412.33396-6.3639605 411.91609-5.946097 411.54298-5.491487 411.21467-5.0001318 410.88633-4.508776 410.6091-3.9901157 410.38294-3.4441505 410.1568-2.8981853 409.98609-2.335406 409.8708-1.7558128 409.75553-1.1762192 409.69789-.5909484 409.6979 0 409.69789 .5909484 409.75553 1.1762192 409.87083 1.7558128 409.98609 2.335406 410.1568 2.8981853 410.38298 3.4441505 410.60914 3.9901157 410.88636 4.508776 411.21467 5.0001318 411.54298 5.491487 411.91606 5.946097 412.33393 6.3639605 412.75178 6.7818238 413.2064 7.1549117 413.69776 7.483225 414.1891 7.811538 414.70774 8.088768 415.25373 8.314915 415.79969 8.54106 416.3625 8.711778 416.9421 8.827066 417.5217 8.942355 418.10697 8.999999 418.69795 9 419.28886 8.999999 419.8741 8.942355 420.4537 8.827066 421.0333 8.711778 421.59608 8.54106 422.14207 8.314915 422.68803 8.088768 423.20668 7.811538 423.69804 7.483225 424.1894 7.1549117 424.64399 6.7818238 425.06187 6.3639605 425.4797 5.946097 425.85279 5.491487 426.18107 5.0001318 426.5094 4.508776 426.78663 3.9901157 427.01277 3.4441505 427.23893 2.8981853 427.40965 2.335406 427.52497 1.7558128 427.64027 1.1762192 427.6979 .5909484 427.6979 0Z" fill="#765e8c"/>
<path transform="matrix(.75,0,0,.75,81.601528,138.26689)" d="M503.8248 43.895887C503.8248 43.304937 503.76716 42.71966 503.65184 42.140069 503.53654 41.560476 503.3658 40.997694 503.13969 40.45173 502.91355 39.90576 502.63633 39.3871 502.30799 38.89575 501.9797 38.404397 501.60664 37.949789 501.18876 37.531927 500.77088 37.11406 500.31626 36.74097 499.8249 36.41266 499.33354 36.084344 498.81489 35.807115 498.26893 35.58097 497.72297 35.354825 497.1602 35.18411 496.5806 35.068819 496.00099 34.953535 495.4157 34.89589 494.8248 34.895887 494.23384 34.89589 493.64854 34.953535 493.06895 35.068819 492.48933 35.184106 491.92655 35.35482 491.38059 35.580968 490.8346 35.807115 490.31596 36.084344 489.82463 36.41266 489.33326 36.74097 488.87867 37.11406 488.46083 37.531927 488.04295 37.949789 487.66987 38.404397 487.34156 38.895753 487.0132 39.387105 486.736 39.905767 486.50984 40.451734 486.2837 40.997697 486.11299 41.560476 485.9977 42.140069 485.88243 42.71966 485.82478 43.304937 485.8248 43.895887 485.82478 44.48683 485.88243 45.0721 485.9977 45.65169 486.11299 46.231287 486.2837 46.794069 486.50984 47.34003 486.736 47.885995 487.0132 48.404657 487.34153 48.89601 487.66987 49.387369 488.04295 49.84198 488.46083 50.259847 488.87867 50.677705 489.33326 51.050794 489.82463 51.37911 490.31596 51.70742 490.8346 51.98465 491.38059 52.210798 491.92655 52.436944 492.48933 52.607664 493.06895 52.72295 493.64854 52.83824 494.23384 52.895887 494.8248 52.895887 495.4157 52.895887 496.00099 52.83824 496.5806 52.72295 497.1602 52.60766 497.72297 52.43694 498.26893 52.210794 498.81489 51.984647 499.33354 51.707418 499.8249 51.379106 500.31626 51.050794 500.77088 50.677705 501.18876 50.259847 501.60664 49.84198 501.9797 49.387369 502.30799 48.89601 502.63633 48.404657 502.91355 47.885995 503.13969 47.34003 503.3658 46.794069 503.53654 46.23129 503.65184 45.651697 503.76716 45.0721 503.8248 44.48683 503.8248 43.895887Z" fill="#765e8c"/>
<path transform="matrix(.75,0,0,.75,81.601528,138.26689)" d="M579.9517 8.779178C579.95169 8.188229 579.89407 7.6029579 579.77877 7.023364 579.66348 6.443771 579.49276 5.8809916 579.2666 5.3350265 579.04049 4.789061 578.76327 4.2704007 578.43496 3.779045 578.1066 3.2876895 577.7335 2.8330799 577.3157 2.4152165 576.8978 1.9973528 576.44326 1.6242644 575.95187 1.295951 575.46047 .9676376 574.9418 .6904079 574.3958 .46426166 573.84988 .2381155 573.28707 .06739827 572.70748-.047890046 572.12789-.16317836 571.5426-.22082252 570.9517-.22082252 570.3607-.22082252 569.77548-.16317836 569.19589-.047890046 568.6162 .06739827 568.05349 .2381155 567.5075 .46426166 566.96157 .6904079 566.44296 .9676376 565.95156 1.295951 565.4602 1.6242644 565.0056 1.9973528 564.5877 2.4152165 564.1698 2.8330799 563.79678 3.2876893 563.46847 3.7790449 563.14016 4.2704007 562.86288 4.789061 562.6367 5.3350265 562.4106 5.8809916 562.23989 6.443771 562.1246 7.0233647 562.00936 7.6029579 561.9517 8.188229 561.9517 8.779178 561.9517 9.370126 562.00936 9.955396 562.1246 10.534988 562.23989 11.114582 562.4106 11.6773619 562.6367 12.223326 562.86288 12.76929 563.14016 13.2879509 563.46847 13.779306 563.79678 14.270662 564.1698 14.725272 564.5877 15.143136 565.0056 15.560999 565.4602 15.934087 565.9516 16.2624 566.44296 16.590712 566.96157 16.86794 567.5075 17.09409 568.05349 17.320237 568.6162 17.490954 569.1958 17.606244 569.77548 17.72153 570.3607 17.779175 570.9517 17.779177 571.5426 17.779175 572.12789 17.72153 572.70748 17.606242 573.28707 17.490954 573.84988 17.320237 574.3958 17.09409 574.9418 16.867945 575.46047 16.590716 575.95187 16.262402 576.44326 15.934089 576.8978 15.561 577.3157 15.143137 577.7335 14.725272 578.1066 14.270662 578.43496 13.779307 578.76327 13.287951 579.04049 12.769291 579.2666 12.223327 579.49276 11.6773619 579.66348 11.114582 579.77877 10.534989 579.89407 9.955397 579.95169 9.370126 579.9517 8.779178Z" fill="#765e8c"/>
<path transform="matrix(.75,0,0,.75,81.601528,138.26689)" d="M656.0786 43.895887C656.07858 43.304937 656.02096 42.71966 655.90567 42.140069 655.79037 41.560476 655.6196 40.997694 655.3935 40.45173 655.1673 39.90576 654.8901 39.3871 654.56179 38.89575 654.23348 38.404397 653.86038 37.949789 653.4425 37.531927 653.0246 37.11406 652.57 36.74097 652.0787 36.41266 651.5873 36.084344 651.0686 35.807115 650.52267 35.58097 649.9767 35.354825 649.41397 35.18411 648.83438 35.068819 648.25479 34.953535 647.6695 34.89589 647.0786 34.895887 646.4877 34.89589 645.9024 34.953535 645.32278 35.068819 644.7431 35.184106 644.18038 35.35482 643.6344 35.580968 643.08847 35.807115 642.56979 36.084344 642.0784 36.41266 641.58706 36.74097 641.13247 37.11406 640.7146 37.531927 640.2967 37.949789 639.92367 38.404397 639.59536 38.895753 639.267 39.387105 638.98977 39.905767 638.7636 40.451734 638.5375 40.997697 638.36679 41.560476 638.25149 42.140069 638.1362 42.71966 638.0786 43.304937 638.0786 43.895887 638.0786 44.48683 638.1362 45.0721 638.25149 45.65169 638.36679 46.231287 638.5375 46.794069 638.7636 47.34003 638.98977 47.885995 639.267 48.404657 639.59536 48.89601 639.92367 49.387369 640.2967 49.84198 640.7146 50.259847 641.13247 50.677705 641.58706 51.050794 642.0784 51.37911 642.56979 51.70742 643.08847 51.98465 643.6344 52.210798 644.18038 52.436944 644.7431 52.607664 645.32278 52.72295 645.9024 52.83824 646.4877 52.895887 647.0786 52.895887 647.6695 52.895887 648.25479 52.83824 648.83438 52.72295 649.41397 52.60766 649.9767 52.43694 650.52267 52.210794 651.0686 51.984647 651.5873 51.707418 652.0786 51.379106 652.57 51.050794 653.0246 50.677705 653.4425 50.259847 653.86038 49.84198 654.2334 49.387369 654.5617 48.89601 654.89 48.404657 655.1673 47.885995 655.3935 47.34003 655.6196 46.794069 655.79037 46.23129 655.90567 45.651697 656.02096 45.0721 656.07858 44.48683 656.0786 43.895887Z" fill="#765e8c"/>
<path transform="matrix(.75,0,0,.75,81.601528,138.26689)" d="M732.2055 43.895887C732.20547 43.304937 732.1478 42.71966 732.03256 42.140069 731.91726 41.560476 731.7465 40.997694 731.5204 40.45173 731.2942 39.90576 731.01699 39.3871 730.68869 38.89575 730.36038 38.404397 729.98727 37.949789 729.56948 37.531927 729.15158 37.11406 728.69699 36.74097 728.2056 36.41266 727.71426 36.084344 727.1956 35.807115 726.64968 35.58097 726.1037 35.354825 725.54098 35.18411 724.96139 35.068819 724.3818 34.953535 723.7965 34.89589 723.20559 34.895887 722.61459 34.89589 722.0293 34.953535 721.44967 35.068819 720.87 35.184106 720.30728 35.35482 719.7613 35.580968 719.21536 35.807115 718.69668 36.084344 718.2053 36.41266 717.7139 36.74097 717.25936 37.11406 716.84158 37.531927 716.42367 37.949789 716.05056 38.404397 715.7222 38.895753 715.3939 39.387105 715.1167 39.905767 714.89059 40.451734 714.6644 40.997697 714.4937 41.560476 714.3784 42.140069 714.2631 42.71966 714.2055 43.304937 714.2055 43.895887 714.2055 44.48683 714.2631 45.0721 714.3784 45.65169 714.4937 46.231287 714.6644 46.794069 714.89059 47.34003 715.1167 47.885995 715.3939 48.404657 715.7222 48.89601 716.05056 49.387369 716.42367 49.84198 716.84158 50.259847 717.25936 50.677705 717.7139 51.050794 718.2053 51.37911 718.69668 51.70742 719.21536 51.98465 719.7613 52.210798 720.30728 52.436944 720.87 52.607664 721.44967 52.72295 722.0293 52.83824 722.61459 52.895887 723.20559 52.895887 723.7965 52.895887 724.3818 52.83824 724.96139 52.72295 725.54098 52.60766 726.1037 52.43694 726.64968 52.210794 727.1956 51.984647 727.71426 51.707418 728.20559 51.379106 728.69699 51.050794 729.15158 50.677705 729.56948 50.259847 729.98727 49.84198 730.36038 49.387369 730.68869 48.89601 731.01699 48.404657 731.2942 47.885995 731.5204 47.34003 731.7465 46.794069 731.91726 46.23129 732.03256 45.651697 732.1478 45.0721 732.20547 44.48683 732.2055 43.895887Z" fill="#765e8c"/>
<path transform="matrix(.75,0,0,.75,81.601528,138.26689)" d="M808.3324 87.79177C808.33236 87.20082 808.27468 86.61554 808.15939 86.03594 808.04409 85.456348 807.87338 84.89357 807.6472 84.3476 807.4211 83.801639 807.1438 83.28298 806.8155 82.791629 806.4872 82.30027 806.11416 81.845668 805.6963 81.4278 805.2784 81.00993 804.8237 80.63685 804.33236 80.30854 803.841 79.980228 803.3224 79.702999 802.7764 79.47685 802.23049 79.25071 801.6677 79.079998 801.0882 78.96471 800.5086 78.84942 799.92337 78.79177 799.3324 78.79177 798.7414 78.79177 798.1561 78.84941 797.57656 78.9647 796.9969 79.07999 796.43417 79.2507 795.8882 79.476848 795.34219 79.70299 794.8235 79.98022 794.3321 80.30853 793.8408 80.63685 793.3862 81.00993 792.9684 81.4278 792.5505 81.845668 792.17739 82.30027 791.84909 82.791629 791.52078 83.28298 791.2435 83.80164 791.0174 84.34761 790.79129 84.89357 790.62057 85.45635 790.5053 86.03595 790.39 86.61555 790.3324 87.20082 790.3324 87.79177 790.3324 88.38271 790.39 88.96798 790.50527 89.54757 790.62057 90.12717 790.79129 90.68994 791.0174 91.23591 791.2435 91.781879 791.52078 92.30053 791.849 92.791889 792.17739 93.28324 792.5505 93.737857 792.9684 94.15572 793.3862 94.57358 793.8408 94.94667 794.33218 95.27499 794.8235 95.603298 795.34219 95.88052 795.8882 96.10668 796.43417 96.332828 796.9969 96.50354 797.57656 96.618839 798.1561 96.734119 798.7414 96.79176 799.3324 96.79177 799.92337 96.79176 800.5086 96.734119 801.0882 96.618839 801.6677 96.50354 802.23049 96.332828 802.7764 96.10668 803.3224 95.88052 803.841 95.603298 804.3324 95.27499 804.8237 94.94667 805.2784 94.57358 805.6963 94.15572 806.11416 93.737857 806.4872 93.28324 806.8155 92.791889 807.1438 92.30053 807.4211 91.781879 807.6473 91.23591 807.8734 90.68994 808.0441 90.12717 808.1594 89.54758 808.2747 88.96798 808.33236 88.38271 808.3324 87.79177Z" fill="#765e8c"/>
<path transform="matrix(.75,0,0,.75,81.601528,138.26689)" d="M47.063447 280.9337C47.063447 280.34275 47.005804 279.75749 46.89051 279.17787 46.775224 278.59825 46.604505 278.03547 46.378358 277.4895 46.15221 276.94355 45.87498 276.4249 45.54667 275.93354 45.218358 275.44218 44.84527 274.98759 44.427408 274.5697 44.00954 274.15184 43.55493 273.77876 43.063577 273.45045 42.572225 273.12214 42.053564 272.8449 41.507596 272.61875 40.96163 272.39259 40.39885 272.2219 39.819257 272.10664 39.239664 271.99134 38.654394 271.9337 38.063447 271.9337 37.472497 271.9337 36.887224 271.99134 36.30763 272.10664 35.728036 272.2219 35.165254 272.39259 34.61929 272.61875 34.073324 272.8449 33.55466 273.12214 33.06331 273.45045 32.571958 273.77876 32.117349 274.15184 31.699482 274.5697 31.281619 274.98759 30.908528 275.44218 30.580214 275.93354 30.2519 276.4249 29.974669 276.94355 29.748524 277.4895 29.522379 278.03547 29.351662 278.59825 29.236374 279.17787 29.121088 279.75749 29.063445 280.34275 29.063446 280.9337 29.063445 281.52464 29.121088 282.1099 29.236374 282.68946 29.351662 283.26905 29.522379 283.83183 29.748524 284.37779 29.974669 284.92378 30.2519 285.4424 30.580214 285.93379 30.908528 286.42515 31.281619 286.87977 31.699482 287.2976 32.117349 287.71546 32.571958 288.08854 33.06331 288.41685 33.55466 288.74519 34.073324 289.0224 34.61929 289.24855 35.165254 289.47468 35.728036 289.6454 36.30763 289.7607 36.887224 289.87599 37.472497 289.93363 38.063447 289.93367 38.654394 289.93363 39.239664 289.87599 39.819257 289.7607 40.39885 289.6454 40.96163 289.47468 41.507596 289.24855 42.053564 289.0224 42.572225 288.74519 43.063577 288.41685 43.55493 288.08854 44.00954 287.71546 44.427408 287.29765 44.84527 286.87977 45.218358 286.42518 45.54667 285.9338 45.87498 285.44245 46.15221 284.9238 46.378358 284.3778 46.604505 283.83183 46.775224 283.26905 46.89051 282.68946 47.005804 282.1099 47.063447 281.52464 47.063447 280.9337Z" fill="#6b765f"/>
<path transform="matrix(.75,0,0,.75,81.601528,138.26689)" d="M123.19034 263.37535C123.19033 262.78437 123.13268 262.1991 123.017398 261.61949 122.9021 261.03993 122.731388 260.47715 122.50524 259.93116 122.27909 259.3852 122.00186 258.86656 121.673549 258.37519 121.34523 257.88383 120.972148 257.42924 120.55429 257.01136 120.13642 256.59349 119.68181 256.2204 119.19045 255.89209 118.6991 255.56377 118.18044 255.28655 117.634479 255.0604 117.08851 254.83425 116.52573 254.66353 115.946147 254.54825 115.366558 254.43297 114.78129 254.37534 114.19034 254.37534 113.59938 254.37534 113.01411 254.43297 112.43452 254.54825 111.85492 254.66353 111.29214 254.83425 110.74618 255.0604 110.20021 255.28655 109.68156 255.56377 109.1902 255.89209 108.698848 256.2204 108.24423 256.59349 107.82637 257.01136 107.4085 257.42924 107.03541 257.88383 106.70709 258.37519 106.37878 258.86656 106.10155 259.3852 105.875408 259.93116 105.64926 260.47715 105.478549 261.03993 105.36326 261.61949 105.24797 262.1991 105.19033 262.78437 105.19034 263.37535 105.19033 263.96629 105.24797 264.55155 105.36326 265.13114 105.478549 265.71073 105.64927 266.2735 105.87541 266.81947 106.101558 267.36543 106.378787 267.88407 106.7071 268.37544 107.035419 268.8668 107.4085 269.3214 107.82637 269.7393 108.24423 270.15715 108.69884 270.5302 109.19019 270.85853 109.68155 271.18687 110.20021 271.46409 110.74618 271.69026 111.29214 271.91636 111.85492 272.08708 112.43452 272.2024 113.01411 272.31767 113.59938 272.3753 114.19034 272.37535 114.78129 272.3753 115.366558 272.31767 115.94614 272.20237 116.52573 272.08708 117.08851 271.91636 117.634479 271.69026 118.18044 271.46409 118.699108 271.18687 119.19046 270.85856 119.681819 270.5302 120.13642 270.15715 120.55429 269.7393 120.972148 269.3214 121.34524 268.8668 121.67355 268.37544 122.00186 267.88407 122.27909 267.36543 122.50524 266.81947 122.731388 266.2735 122.9021 265.71073 123.017398 265.13114 123.13268 264.55155 123.19033 263.96629 123.19034 263.37535Z" fill="#6b765f"/>
<path transform="matrix(.75,0,0,.75,81.601528,138.26689)" d="M199.31723 263.37535C199.31722 262.78437 199.25957 262.1991 199.14427 261.61949 199.02899 261.03993 198.85826 260.47715 198.63211 259.93116 198.40596 259.3852 198.12873 258.86656 197.80042 258.37519 197.4721 257.88383 197.09903 257.42924 196.68119 257.01136 196.2633 256.59349 195.80869 256.2204 195.31734 255.89209 194.82599 255.56377 194.30733 255.28655 193.76137 255.0604 193.2154 254.83425 192.65262 254.66353 192.07303 254.54825 191.49343 254.43297 190.90816 254.37534 190.31723 254.37534 189.72628 254.37534 189.141 254.43297 188.5614 254.54825 187.98181 254.66353 187.41904 254.83425 186.87306 255.0604 186.3271 255.28655 185.80844 255.56377 185.31708 255.89209 184.82573 256.2204 184.37113 256.59349 183.95326 257.01136 183.5354 257.42924 183.16231 257.88383 182.834 258.37519 182.50568 258.86656 182.22844 259.3852 182.00229 259.93116 181.77616 260.47715 181.60544 261.03993 181.49016 261.61949 181.37488 262.1991 181.31723 262.78437 181.31723 263.37535 181.31723 263.96629 181.37488 264.55155 181.49016 265.13114 181.60544 265.71073 181.77616 266.2735 182.00229 266.81947 182.22844 267.36543 182.50566 267.88407 182.83399 268.37544 183.16231 268.8668 183.5354 269.3214 183.95326 269.7393 184.37113 270.15715 184.82573 270.5302 185.31708 270.85853 185.80844 271.18687 186.3271 271.46409 186.87306 271.69026 187.41904 271.91636 187.98181 272.08708 188.56142 272.2024 189.141 272.31767 189.72628 272.3753 190.31723 272.37535 190.90816 272.3753 191.49343 272.31767 192.07302 272.20237 192.65262 272.08708 193.2154 271.91636 193.76137 271.69026 194.30733 271.46409 194.82599 271.18687 195.31734 270.85856 195.80869 270.5302 196.2633 270.15715 196.68119 269.7393 197.09903 269.3214 197.4721 268.8668 197.80042 268.37544 198.12873 267.88407 198.40596 267.36543 198.63211 266.81947 198.85826 266.2735 199.02899 265.71073 199.1443 265.13114 199.25959 264.55155 199.31722 263.96629 199.31723 263.37535Z" fill="#6b765f"/>
<path transform="matrix(.75,0,0,.75,81.601528,138.26689)" d="M275.44413 193.1419C275.4441 192.55095 275.3864 191.96569 275.27116 191.3861 275.15589 190.80649 274.98518 190.24372 274.759 189.69774 274.53288 189.15178 274.25566 188.63312 273.92735 188.14177 273.59904 187.65042 273.22596 187.1958 272.80809 186.77794 272.3902 186.36008 271.93559 185.987 271.4442 185.65868 270.95286 185.33036 270.43418 185.05313 269.8882 184.82698 269.3423 184.60083 268.7795 184.43013 268.1999 184.31485 267.62034 184.19957 267.03507 184.14192 266.44413 184.1419 265.85316 184.14192 265.26789 184.19956 264.68827 184.31484 264.1087 184.43012 263.54594 184.60083 262.99995 184.82698 262.45396 185.05313 261.9353 185.33036 261.44398 185.65868 260.9526 185.987 260.498 186.36008 260.08015 186.77794 259.66227 187.1958 259.28916 187.65042 258.96086 188.14177 258.63255 188.63312 258.35533 189.15178 258.12919 189.69774 257.90306 190.24372 257.73234 190.80649 257.61705 191.3861 257.50178 191.96569 257.44413 192.55095 257.44413 193.1419 257.44413 193.73284 257.50178 194.31812 257.61705 194.89772 257.73234 195.4773 257.90306 196.04007 258.12919 196.58605 258.35533 197.132 258.63255 197.65067 258.96086 198.14202 259.28916 198.63338 259.66227 199.088 260.08015 199.50586 260.498 199.92372 260.9526 200.2968 261.44398 200.6251 261.9353 200.95342 262.45396 201.23065 262.99995 201.4568 263.54594 201.68296 264.1087 201.85367 264.68827 201.96897 265.26789 202.08426 265.85316 202.1419 266.44413 202.1419 267.03507 202.1419 267.62034 202.08426 268.19993 201.96895 268.7795 201.85367 269.3423 201.68296 269.88825 201.4568 270.4342 201.23065 270.95286 200.95342 271.4442 200.6251 271.93559 200.2968 272.3902 199.92372 272.80809 199.50586 273.22596 199.088 273.59904 198.63338 273.92735 198.14202 274.25566 197.65067 274.53288 197.132 274.759 196.58605 274.98518 196.04007 275.15589 195.4773 275.27116 194.8977 275.3864 194.3181 275.4441 193.73284 275.44413 193.1419Z" fill="#6b765f"/>
<path transform="matrix(.75,0,0,.75,81.601528,138.26689)" d="M351.571 245.81697C351.57099 245.22602 351.5133 244.64073 351.39805 244.06113 351.2827 243.48154 351.112 242.91876 350.88587 242.3728 350.65974 241.82683 350.3825 241.30817 350.05418 240.81682 349.7259 240.32547 349.3528 239.87085 348.93495 239.45299 348.51707 239.03513 348.06245 238.66204 347.5711 238.33373 347.07975 238.0054 346.56108 237.72818 346.0151 237.50205 345.46916 237.27591 344.90638 237.1052 344.3268 236.98992 343.74723 236.87464 343.16197 236.81699 342.571 236.81699 341.98005 236.81699 341.39479 236.87464 340.81517 236.98992 340.23558 237.1052 339.6728 237.27591 339.12684 237.50205 338.58085 237.7282 338.0622 238.00542 337.57087 238.33373 337.0795 238.66205 336.62489 239.03514 336.20704 239.453 335.78916 239.87087 335.41609 240.32547 335.08778 240.81682 334.75944 241.30817 334.4822 241.82683 334.25605 242.3728 334.0299 242.91876 333.8592 243.48154 333.74394 244.06113 333.62867 244.64073 333.571 245.22602 333.571 245.81697 333.571 246.40792 333.62867 246.99318 333.74394 247.57276 333.8592 248.15235 334.0299 248.71512 334.25605 249.26108 334.4822 249.80706 334.75944 250.32572 335.08778 250.81707 335.41609 251.30844 335.78916 251.76306 336.20704 252.18094 336.62489 252.59879 337.0795 252.97188 337.57087 253.3002 338.0622 253.62853 338.58085 253.90575 339.12684 254.1319 339.6728 254.35805 340.23558 254.52877 340.81517 254.64406 341.39479 254.75934 341.98005 254.81699 342.571 254.81699 343.16197 254.81699 343.74723 254.75934 344.3268 254.64403 344.90638 254.52875 345.46916 254.35802 346.0151 254.13187 346.56108 253.90572 347.0797 253.6285 347.57109 253.30019 348.06245 252.97187 348.51707 252.59879 348.93495 252.18093 349.3528 251.76306 349.7259 251.30844 350.05418 250.81707 350.3825 250.32572 350.65974 249.80706 350.88587 249.26108 351.112 248.71512 351.2827 248.15235 351.39805 247.57276 351.5133 246.99318 351.57099 246.40792 351.571 245.81697Z" fill="#6b765f"/>
<path transform="matrix(.75,0,0,.75,81.601528,138.26689)" d="M427.6979 219.47943C427.6979 218.88848 427.64027 218.30319 427.52497 217.72362 427.40965 217.14402 427.23893 216.58123 427.0128 216.03527 426.78663 215.48929 426.5094 214.97063 426.18107 214.47928 425.85276 213.98793 425.47969 213.53333 425.06184 213.11547 424.64396 212.6976 424.18937 212.32451 423.698 211.99619 423.20668 211.66788 422.68803 211.39066 422.14207 211.1645 421.59608 210.93836 421.0333 210.76764 420.45368 210.65236 419.8741 210.53708 419.28886 210.47943 418.69795 210.47943 418.10697 210.47943 417.5217 210.53708 416.94209 210.65236 416.36247 210.76764 415.79969 210.93834 415.25376 211.16449 414.7078 211.39064 414.18916 211.66786 413.69779 211.99619 413.20643 212.32451 412.75184 212.69759 412.33396 213.11545 411.91609 213.53331 411.54298 213.98793 411.21467 214.47928 410.88633 214.97063 410.6091 215.48929 410.38294 216.03525 410.1568 216.58123 409.98609 217.144 409.8708 217.7236 409.75553 218.30319 409.69789 218.88848 409.6979 219.47943 409.69789 220.07036 409.75553 220.65563 409.87083 221.23523 409.98609 221.8148 410.1568 222.37758 410.38298 222.92356 410.60914 223.46952 410.88636 223.98818 411.21467 224.47953 411.54298 224.97089 411.91606 225.4255 412.33393 225.84339 412.75178 226.26125 413.2064 226.63434 413.69776 226.96265 414.1891 227.29096 414.70774 227.56818 415.25373 227.79433 415.79969 228.02046 416.3625 228.19118 416.9421 228.30648 417.5217 228.42177 418.10697 228.47942 418.69795 228.47943 419.28886 228.47942 419.8741 228.42177 420.4537 228.30648 421.0333 228.19118 421.59608 228.02046 422.14207 227.79433 422.68803 227.56818 423.20668 227.29096 423.69804 226.96265 424.1894 226.63434 424.64399 226.26125 425.06187 225.84339 425.4797 225.4255 425.85279 224.97089 426.18107 224.47953 426.5094 223.98818 426.78663 223.46952 427.01277 222.92354 427.23893 222.37758 427.40965 221.8148 427.52497 221.23522 427.64027 220.65563 427.6979 220.07036 427.6979 219.47943Z" fill="#6b765f"/>
<path transform="matrix(.75,0,0,.75,81.601528,138.26689)" d="M503.8248 131.68767C503.8248 131.09671 503.76716 130.51145 503.65184 129.93186 503.53654 129.35225 503.3658 128.78948 503.13969 128.24352 502.91355 127.69755 502.63633 127.17888 502.30799 126.68752 501.9797 126.19617 501.60664 125.74156 501.18876 125.3237 500.77088 124.90583 500.31626 124.532749 499.8249 124.20443 499.33354 123.876117 498.81489 123.598888 498.26893 123.37274 497.72297 123.1466 497.1602 122.97588 496.5806 122.8606 496.00099 122.745319 495.4157 122.68767 494.8248 122.68767 494.23384 122.68767 493.64854 122.745319 493.06895 122.8606 492.48933 122.97588 491.92655 123.1466 491.38059 123.37275 490.8346 123.59889 490.31596 123.87612 489.82463 124.20443 489.33326 124.532749 488.87867 124.90583 488.46083 125.3237 488.04295 125.74156 487.66987 126.19617 487.34156 126.68752 487.0132 127.17888 486.736 127.69753 486.50984 128.2435 486.2837 128.78948 486.11299 129.35225 485.9977 129.93186 485.88243 130.51145 485.82478 131.09671 485.8248 131.68767 485.82478 132.2786 485.88243 132.86388 485.9977 133.44348 486.11299 134.02306 486.2837 134.58583 486.50984 135.1318 486.736 135.67777 487.0132 136.19643 487.34153 136.68778 487.66987 137.17913 488.04295 137.63375 488.46083 138.05162 488.87867 138.46949 489.33326 138.84258 489.82463 139.17089 490.31596 139.4992 490.8346 139.77643 491.38059 140.00258 491.92655 140.22873 492.48933 140.39946 493.06895 140.51474 493.64854 140.63002 494.23384 140.68767 494.8248 140.68767 495.4157 140.68767 496.00099 140.63002 496.5806 140.51474 497.1602 140.39946 497.72297 140.22873 498.26893 140.00258 498.81489 139.77643 499.33354 139.4992 499.8249 139.1709 500.31626 138.84258 500.77088 138.46949 501.18876 138.05162 501.60664 137.63375 501.9797 137.17913 502.30799 136.68778 502.63633 136.19643 502.91355 135.67777 503.13969 135.1318 503.3658 134.58583 503.53654 134.02306 503.65184 133.44347 503.76716 132.86386 503.8248 132.2786 503.8248 131.68767Z" fill="#6b765f"/>
<path transform="matrix(.75,0,0,.75,81.601528,138.26689)" d="M579.9517 175.58354C579.95169 174.99259 579.89407 174.40732 579.77877 173.82772 579.66348 173.24811 579.49276 172.68532 579.2666 172.13936 579.04049 171.59339 578.76327 171.07472 578.43496 170.58338 578.1066 170.09203 577.7335 169.63742 577.3157 169.21956 576.8978 168.8017 576.44326 168.4286 575.95187 168.1003 575.46047 167.77198 574.9418 167.49475 574.3958 167.26862 573.84988 167.04247 573.28707 166.87175 572.70748 166.75647 572.12789 166.64119 571.5426 166.58354 570.9517 166.58354 570.3607 166.58354 569.77548 166.64119 569.19589 166.75647 568.6162 166.87175 568.05349 167.04247 567.5075 167.26862 566.96157 167.49475 566.44296 167.77198 565.95156 168.1003 565.4602 168.4286 565.0056 168.8017 564.5877 169.21956 564.1698 169.63742 563.79678 170.09203 563.46847 170.58338 563.14016 171.07474 562.86288 171.5934 562.6367 172.13938 562.4106 172.68534 562.23989 173.24813 562.1246 173.82773 562.00936 174.40732 561.9517 174.99259 561.9517 175.58354 561.9517 176.17447 562.00936 176.75975 562.1246 177.33936 562.23989 177.91893 562.4106 178.48172 562.6367 179.0277 562.86288 179.57364 563.14016 180.0923 563.46847 180.58367 563.79678 181.07501 564.1698 181.52962 564.5877 181.9475 565.0056 182.36536 565.4602 182.73844 565.9516 183.06676 566.44296 183.39507 566.96157 183.67229 567.5075 183.89844 568.05349 184.12459 568.6162 184.2953 569.1958 184.4106 569.77548 184.5259 570.3607 184.58354 570.9517 184.58354 571.5426 184.58354 572.12789 184.5259 572.70748 184.4106 573.28707 184.2953 573.84988 184.12459 574.3958 183.89844 574.9418 183.67229 575.46047 183.39507 575.95187 183.06676 576.44326 182.73844 576.8978 182.36536 577.3157 181.9475 577.7335 181.52962 578.1066 181.07501 578.43496 180.58367 578.76327 180.0923 579.04049 179.57364 579.2666 179.0277 579.49276 178.48172 579.66348 177.91893 579.77877 177.33936 579.89407 176.75975 579.95169 176.17447 579.9517 175.58354Z" fill="#6b765f"/>
<path transform="matrix(.75,0,0,.75,81.601528,138.26689)" d="M656.0786 193.1419C656.07858 192.55095 656.02096 191.96569 655.90567 191.3861 655.79037 190.80649 655.6196 190.24372 655.3935 189.69774 655.1673 189.15178 654.8901 188.63312 654.56179 188.14177 654.23348 187.65042 653.86038 187.1958 653.4425 186.77794 653.0246 186.36008 652.57 185.987 652.0787 185.65868 651.5873 185.33036 651.0686 185.05313 650.52267 184.82698 649.9767 184.60083 649.41397 184.43013 648.83438 184.31485 648.25479 184.19957 647.6695 184.14192 647.0786 184.1419 646.4877 184.14192 645.9024 184.19956 645.32278 184.31484 644.7431 184.43012 644.18038 184.60083 643.6344 184.82698 643.08847 185.05313 642.56979 185.33036 642.0784 185.65868 641.58706 185.987 641.13247 186.36008 640.7146 186.77794 640.2967 187.1958 639.92367 187.65042 639.59536 188.14177 639.267 188.63312 638.98977 189.15178 638.7636 189.69774 638.5375 190.24372 638.36679 190.80649 638.25149 191.3861 638.1362 191.96569 638.0786 192.55095 638.0786 193.1419 638.0786 193.73284 638.1362 194.31812 638.25149 194.89772 638.36679 195.4773 638.5375 196.04007 638.7636 196.58605 638.98977 197.132 639.267 197.65067 639.59536 198.14202 639.92367 198.63338 640.2967 199.088 640.7146 199.50586 641.13247 199.92372 641.58706 200.2968 642.0784 200.6251 642.56979 200.95342 643.08847 201.23065 643.6344 201.4568 644.18038 201.68296 644.7431 201.85367 645.32278 201.96897 645.9024 202.08426 646.4877 202.1419 647.0786 202.1419 647.6695 202.1419 648.25479 202.08426 648.83438 201.96895 649.41397 201.85367 649.9767 201.68296 650.52267 201.4568 651.0686 201.23065 651.5873 200.95342 652.0786 200.6251 652.57 200.2968 653.0246 199.92372 653.4425 199.50586 653.86038 199.088 654.2334 198.63338 654.5617 198.14202 654.89 197.65067 655.1673 197.132 655.3935 196.58605 655.6196 196.04007 655.79037 195.4773 655.90567 194.8977 656.02096 194.3181 656.07858 193.73284 656.0786 193.1419Z" fill="#6b765f"/>
<path transform="matrix(.75,0,0,.75,81.601528,138.26689)" d="M732.2055 201.92108C732.20547 201.33013 732.1478 200.74485 732.03256 200.16524 731.91726 199.58565 731.7465 199.02288 731.5204 198.47692 731.2942 197.93094 731.01699 197.41228 730.68869 196.92093 730.36038 196.42958 729.98727 195.97498 729.56948 195.55712 729.15158 195.13925 728.69699 194.76616 728.2056 194.43784 727.71426 194.10953 727.1956 193.8323 726.64968 193.60616 726.1037 193.38 725.54098 193.20929 724.96139 193.09401 724.3818 192.97873 723.7965 192.92108 723.20559 192.92108 722.61459 192.92108 722.0293 192.97872 721.44967 193.094 720.87 193.20929 720.30728 193.38 719.7613 193.60616 719.21536 193.8323 718.69668 194.10953 718.2053 194.43785 717.7139 194.76616 717.25936 195.13925 716.84158 195.55712 716.42367 195.97498 716.05056 196.42958 715.7222 196.92093 715.3939 197.41228 715.1167 197.93094 714.89059 198.47692 714.6644 199.02288 714.4937 199.58565 714.3784 200.16524 714.2631 200.74485 714.2055 201.33013 714.2055 201.92108 714.2055 202.51203 714.2631 203.09729 714.3784 203.67688 714.4937 204.25647 714.6644 204.81925 714.89059 205.36522 715.1167 205.91118 715.3939 206.42984 715.7222 206.92119 716.05056 207.41254 716.42367 207.86716 716.84158 208.28504 717.25936 208.70288 717.7139 209.07596 718.2053 209.40428 718.69668 209.7326 719.21536 210.00983 719.7613 210.23598 720.30728 210.46213 720.87 210.63285 721.44967 210.74814 722.0293 210.86344 722.61459 210.92108 723.20559 210.92108 723.7965 210.92108 724.3818 210.86344 724.96139 210.74816 725.54098 210.63286 726.1037 210.46215 726.64968 210.236 727.1956 210.00984 727.71426 209.73262 728.20559 209.4043 728.69699 209.07598 729.15158 208.70288 729.56948 208.28504 729.98727 207.86716 730.36038 207.41254 730.68869 206.92119 731.01699 206.42984 731.2942 205.91118 731.5204 205.36522 731.7465 204.81925 731.91726 204.25647 732.03256 203.67688 732.1478 203.09729 732.20547 202.51203 732.2055 201.92108Z" fill="#6b765f"/>
<path transform="matrix(.75,0,0,.75,81.601528,138.26689)" d="M808.3324 245.81697C808.33236 245.22602 808.27468 244.64073 808.15939 244.06113 808.04409 243.48154 807.87338 242.91876 807.6472 242.3728 807.4211 241.82683 807.1438 241.30817 806.8155 240.81682 806.4872 240.32547 806.11416 239.87085 805.6963 239.45299 805.2784 239.03513 804.8237 238.66204 804.33236 238.33373 803.841 238.0054 803.3224 237.72818 802.7764 237.50205 802.23049 237.27591 801.6677 237.1052 801.0882 236.98992 800.5086 236.87464 799.92337 236.81699 799.3324 236.81699 798.7414 236.81699 798.1561 236.87464 797.57656 236.98992 796.9969 237.1052 796.43417 237.27591 795.8882 237.50205 795.34219 237.7282 794.8235 238.00542 794.3321 238.33373 793.8408 238.66205 793.3862 239.03514 792.9684 239.453 792.5505 239.87087 792.17739 240.32547 791.84909 240.81682 791.52078 241.30817 791.2435 241.82683 791.0174 242.3728 790.79129 242.91876 790.62057 243.48154 790.5053 244.06113 790.39 244.64073 790.3324 245.22602 790.3324 245.81697 790.3324 246.40792 790.39 246.99318 790.50527 247.57276 790.62057 248.15235 790.79129 248.71512 791.0174 249.26108 791.2435 249.80706 791.52078 250.32572 791.849 250.81707 792.17739 251.30844 792.5505 251.76306 792.9684 252.18094 793.3862 252.59879 793.8408 252.97188 794.33218 253.3002 794.8235 253.62853 795.34219 253.90575 795.8882 254.1319 796.43417 254.35805 796.9969 254.52877 797.57656 254.64406 798.1561 254.75934 798.7414 254.81699 799.3324 254.81699 799.92337 254.81699 800.5086 254.75934 801.0882 254.64403 801.6677 254.52875 802.23049 254.35802 802.7764 254.13187 803.3224 253.90572 803.841 253.6285 804.3324 253.30019 804.8237 252.97187 805.2784 252.59879 805.6963 252.18093 806.11416 251.76306 806.4872 251.30844 806.8155 250.81707 807.1438 250.32572 807.4211 249.80706 807.6473 249.26108 807.8734 248.71512 808.0441 248.15235 808.1594 247.57276 808.2747 246.99318 808.33236 246.40792 808.3324 245.81697Z" fill="#6b765f"/>
</g>
</g>
</svg>
