<svg xmlns="http://www.w3.org/2000/svg" height="16" width="14" viewBox="0 0 448 512"><!--!Font Awesome Free 6.5.1 by @fontawesome - https://fontawesome.com License - https://fontawesome.com/license/free Copyright 2023 Fonticons, Inc.--><path opacity="1" fill="#1E3050" d="M96 288H32c-17.7 0-32 14.3-32 32v64c0 17.7 14.3 32 32 32h64c17.7 0 32-14.3 32-32v-64c0-17.7-14.3-32-32-32zm160 0h-64c-17.7 0-32 14.3-32 32v64c0 17.7 14.3 32 32 32h64c17.7 0 32-14.3 32-32v-64c0-17.7-14.3-32-32-32zm160 0h-64c-17.7 0-32 14.3-32 32v64c0 17.7 14.3 32 32 32h64c17.7 0 32-14.3 32-32v-64c0-17.7-14.3-32-32-32zM96 96H32c-17.7 0-32 14.3-32 32v64c0 17.7 14.3 32 32 32h64c17.7 0 32-14.3 32-32v-64c0-17.7-14.3-32-32-32zm160 0h-64c-17.7 0-32 14.3-32 32v64c0 17.7 14.3 32 32 32h64c17.7 0 32-14.3 32-32v-64c0-17.7-14.3-32-32-32zm160 0h-64c-17.7 0-32 14.3-32 32v64c0 17.7 14.3 32 32 32h64c17.7 0 32-14.3 32-32v-64c0-17.7-14.3-32-32-32z"/></svg>